<svg version="1" xmlns="http://www.w3.org/2000/svg" width="533.333" height="533.333" viewBox="0 0 400.000000 400.000000"><path d="M219.6 36.2C219 39 206 138 206 139.7c0 .7-.4 1.3-.9 1.3s-20-14.6-43.2-32.5c-23.3-17.8-42.5-32.2-42.7-32-.2.2-1.5 8.6-2.8 18.7-1.3 10.1-4.9 37-7.9 59.8-3 22.8-8.4 63.8-12 91-5.5 42.2-6.3 49.6-5.1 50.8 2.1 2.2 88.1 68 88.4 67.7.1-.1 1.1-6.9 2.2-15.1 5.9-46 12.1-91.8 12.3-92 .1-.2 19.5 14.5 43.1 32.7 23.6 18.1 43.1 32.8 43.2 32.6.2-.1 3.5-24.5 7.4-54.2 9-68.8 14.1-107.5 18.4-139.5 3.2-23.7 3.3-25.6 1.8-27.1-1-.9-18.3-14.4-38.7-29.9-20.3-15.6-39.8-30.5-43.2-33.2-6-4.7-6.3-4.8-6.7-2.6zm44.6 36.4c22.7 17.4 41.4 31.7 41.5 31.8.1 0-1.9 15.2-4.3 33.6-2.4 18.4-5.3 40.9-6.5 50-1.1 9.1-2.3 17.3-2.7 18.2-.6 1.5-7.9-3.7-41.2-29.3-22.3-17.1-40.8-31.4-41.3-31.8-.4-.4 2.2-22.9 5.8-50.1 3.6-27.1 6.5-50.3 6.5-51.6 0-1.3.2-2.4.5-2.4.2 0 19 14.2 41.7 31.6zm-100.9 41.8c21.3 16.3 38.7 30 38.7 30.4 0 .4-9.8 4.7-21.8 9.7-11.9 4.9-32.7 13.5-46.2 19.1-23.6 9.7-24.5 10.1-24.8 7.9-.2-1.3.8-10.5 2.2-20.6 1.4-10.1 4.1-30.8 6.1-45.9 4.1-32.3 4.2-32.5 5.8-31.2.7.5 18.6 14.2 40 30.6zm39.6 47.8c-1 7.3-3.9 29.8-6.6 50-2.6 20.3-5.1 36.8-5.5 36.8-1 0-79.2-59.9-79.6-61-.3-.8 1.1-1.4 55.3-23.9 19.8-8.3 36.5-15 37.1-15.1.7 0 .5 4.2-.7 13.2zm47.4 18.8c21.2 16.2 38.6 29.8 38.7 30.1 0 .3-1.7 1.3-3.7 2.1-2.1.8-23.1 9.5-46.6 19.3-23.6 9.7-43 17.5-43.2 17.3-.2-.2 2.5-22.2 6-48.8 3.6-26.7 6.5-49.3 6.5-50.3 0-2.3-4.4-5.4 42.3 30.3zm-100.4 41.9c37.7 28.9 40.9 31.6 40.5 34-.2 1.4-3.1 23.5-6.4 49.1-3.3 25.6-6.3 47.7-6.8 49.2-.7 2.5-1.6 1.9-39.7-27.4-21.4-16.5-40-30.7-41.3-31.7l-2.3-1.6 4-31c8.4-64.1 9.6-72.5 10.3-72.3.4.2 19.2 14.4 41.7 31.7zm141.1-6.7c0 2.4-12.9 99.1-13.3 99.4-.2.2-18.4-13.5-40.4-30.4-22.1-16.9-39.8-31-39.5-31.4.4-.3 16.7-7.3 36.2-15.4 19.5-8 40-16.6 45.5-18.9 11.5-4.9 11.5-4.9 11.5-3.3z"/></svg>