<?xml version="1.0" standalone="no"?>
<!DOCTYPE svg PUBLIC "-//W3C//DTD SVG 1.1//EN" "http://www.w3.org/Graphics/SVG/1.1/DTD/svg11.dtd" >
<svg xmlns="http://www.w3.org/2000/svg">
<metadata></metadata>
<defs>
<font id="stanleybold" horiz-adv-x="1269" >
<font-face units-per-em="2048" ascent="1622" descent="-426" />
<missing-glyph horiz-adv-x="499" />
<glyph unicode="&#xfb00;" horiz-adv-x="1357" d="M819 1004h-360v67q0 150 46 207t128 57q72 0 125 -45t78 -102q-16 -78 -17 -172v-12zM1100 1247q0 133 78 133q41 0 65.5 -33.5t24.5 -99.5v-51h221q4 10 10 30.5t6 49.5t-16 64.5t-51 66.5t-92.5 52.5t-139.5 21.5q-88 0 -158.5 -27t-121.5 -84q-47 18 -118 41t-161 23 q-111 0 -199 -36t-147 -94.5t-91 -133t-32 -154.5v-12h-119v-68l123 -31v-762l-57 -65h-66v-78h543v78h-82l-61 65v772h364v-772l-57 -65h-66v-78h543v78h-82l-61 65v772h239v89h-239v243z" />
<glyph unicode="&#xfb01;" horiz-adv-x="1280" d="M459 1051q0 170 39 250.5t143 80.5q63 0 101 -34.5t63 -94.5l24 -59h244q12 16 20.5 43t8.5 51q0 37 -21.5 71t-70.5 61.5t-130 44t-200 16.5q-113 0 -192.5 -25.5t-136 -67.5t-90.5 -94.5t-52.5 -103.5t-24.5 -97t-6 -77v-12h-119v-68l123 -31v-762l-57 -65h-66v-78h533 v78h-72l-61 65v772h313l51 -55v-717l-57 -65h-82v-78h567v78h-90l-61 65v861h-641v47z" />
<glyph unicode="&#xfb02;" horiz-adv-x="1282" d="M1100 1475l-293 -15q-37 10 -78 15.5t-82 5.5q-86 0 -171 -27t-150.5 -83t-106.5 -144t-41 -211v-12h-119v-68l123 -31v-762l-57 -65h-66v-78h543v78h-82l-61 65v772h280v89h-280v180q0 96 48 146t132 50q63 0 106 -26.5t78 -73.5v-1137l-57 -65h-80v-78h565v78h-90 l-61 65v1332z" />
<glyph unicode="&#xfb03;" horiz-adv-x="1921" d="M459 1071q0 150 46 207t128 57q72 0 125 -45t78 -102q-16 -72 -17 -154v-30h-360v67zM1100 1051q0 170 39 250.5t143 80.5q63 0 101 -34.5t63 -94.5l24 -59h244q12 16 20.5 43t8.5 51q0 37 -21.5 71t-70.5 61.5t-130 44t-200 16.5q-131 0 -220 -36t-145 -89 q-59 35 -135 56.5t-174 21.5q-111 0 -199 -36t-147 -94.5t-91 -133t-32 -154.5v-12h-119v-68l123 -31v-762l-57 -65h-66v-78h543v78h-82l-61 65v772h364v-772l-57 -65h-66v-78h543v78h-82l-61 65v772h313l51 -55v-717l-57 -65h-82v-78h567v78h-90l-61 65v861h-641v47z" />
<glyph unicode="&#xfb04;" horiz-adv-x="1923" d="M819 1004h-360v67q0 150 46 207t128 57q72 0 125 -45t78 -102q-16 -70 -17 -148v-36zM1741 1475l-293 -15q-37 10 -78 15.5t-82 5.5q-94 0 -183 -30t-157 -95q-25 12 -58.5 26.5t-73.5 25.5t-83 18.5t-86 7.5q-111 0 -199 -36t-147 -94.5t-91 -133t-32 -154.5v-12h-119 v-68l123 -31v-762l-57 -65h-66v-78h543v78h-82l-61 65v772h364v-772l-57 -65h-66v-78h543v78h-82l-61 65v772h280v89h-280v188q2 92 50 140t130 48q63 0 106.5 -26.5t77.5 -73.5v-1137l-57 -65h-80v-78h565v78h-90l-61 65v1332z" />
<glyph unicode="Th" horiz-adv-x="2314" d="M1530 1481h-62l-73 -27h-1211l-71 27h-62v-477h58l229 350h207v-1188l-84 -88h-176v-78h751v78h-116l-82 88v1188h356l59 -64v-1147l-59 -65h-66v-78h527v78h-68l-57 65v605q49 51 100 81.5t96 30.5q66 0 103 -44t37 -134v-539l-58 -65h-69v-78h536v78h-71l-62 65v568 q0 143 -78.5 231t-230.5 88q-86 0 -161 -46t-138 -124h-4v621z" />
<glyph unicode="f&#xe4;" horiz-adv-x="1783" d="M1245 930q45 0 76 -29t31 -117v-176l-107 -12q-96 -12 -178 -41t-141.5 -74t-93 -107.5t-33.5 -140.5t24.5 -129t62.5 -79.5t85 -40t90 -11.5q86 0 153.5 37t141.5 123h4l-23 -153l404 20v57h-53l-60 66v614q0 59 -18.5 112.5t-61.5 93.5t-116.5 63.5t-184.5 23.5 q-55 0 -122.5 -16.5t-128 -49t-100.5 -84t-40 -120.5q0 -59 12 -80h262v115q0 61 35 98t80 37zM1352 236q-45 -51 -89 -74t-87 -23t-68 40t-25 95q0 80 59.5 141.5t164.5 84.5l45 8v-272zM1632 1315q0 59 -40 99t-99 40t-99 -40t-40 -99t40 -99t99 -40t99 40t40 99z M713 1004h-254v47q0 170 39 250.5t143 80.5q63 0 101 -34.5t63 -94.5l24 -59h244q12 16 20.5 43t8.5 51q0 37 -21.5 71t-70.5 61.5t-130 44t-200 16.5q-113 0 -192.5 -25.5t-136 -67.5t-90.5 -94.5t-52.5 -103.5t-24.5 -97t-6 -77v-12h-119v-68l123 -31v-762l-57 -65h-66 v-78h533v78h-72l-61 65v772h254v89z" />
<glyph unicode="fb" horiz-adv-x="1847" d="M1100 799q41 33 81 49t91 16q104 0 160.5 -109.5t56.5 -301.5q0 -193 -54.5 -283t-144.5 -90q-66 0 -110.5 35t-79.5 102v582zM1096 1475l-289 -15q-37 10 -78 15.5t-82 5.5q-86 0 -171 -27t-150.5 -83t-106.5 -144t-41 -211v-12h-119v-68l123 -31v-762l-57 -65h-66v-78 h543v78h-82l-61 65v772h280v89h-280v180q0 96 48 146t132 50q63 0 106 -26.5t78 -73.5v-1188q39 -23 80 -44t94.5 -37.5t121 -27t157.5 -10.5q121 0 214 44t156.5 121t96.5 180.5t33 220.5q0 102 -28 192t-80 156.5t-128 104.5t-174 38q-84 0 -145.5 -36t-120.5 -83h-4v564z " />
<glyph unicode="f&#xeb;" horiz-adv-x="1691" d="M1028 696q20 127 75.5 176.5t113.5 49.5q55 0 94 -34t39 -116v-76h-322zM1632 1315q0 59 -40 99t-99 40t-99 -40t-40 -99t40 -99t99 -40t99 40t40 99zM1602 621v96q0 61 -26 117.5t-74 100.5t-117.5 69.5t-159.5 25.5q-100 0 -184.5 -45t-144.5 -119.5t-94 -174 t-34 -208.5q0 -98 28.5 -190t86 -163t142.5 -114t198 -43q160 0 265 98.5t159 272.5l-48 21q-47 -76 -115.5 -114t-170.5 -38q-55 0 -107.5 19.5t-94.5 63.5t-66.5 113.5t-24.5 170.5v16h557zM748 1004h-289v47q0 170 39 250.5t143 80.5q63 0 101 -34.5t63 -94.5l24 -59h244 q12 16 20.5 43t8.5 51q0 37 -21.5 71t-70.5 61.5t-130 44t-200 16.5q-113 0 -192.5 -25.5t-136 -67.5t-90.5 -94.5t-52.5 -103.5t-24.5 -97t-6 -77v-12h-119v-68l123 -31v-762l-57 -65h-66v-78h533v78h-72l-61 65v772h289v89z" />
<glyph unicode="ff&#xe4;" horiz-adv-x="2424" d="M1886 930q45 0 76 -29t31 -117v-176l-107 -12q-96 -12 -178 -41t-141.5 -74t-93 -107.5t-33.5 -140.5t24.5 -129t62.5 -79.5t85 -40t90 -11.5q86 0 153.5 37t141.5 123h4l-23 -153l404 20v57h-53l-60 66v614q0 59 -18.5 112.5t-61.5 93.5t-116.5 63.5t-184.5 23.5 q-55 0 -122.5 -16.5t-128 -49t-100.5 -84t-40 -120.5q0 -59 12 -80h263v115q0 61 34.5 98t79.5 37zM1993 236q-45 -51 -89 -74t-87 -23t-68 40t-25 95q0 80 59.5 141.5t164.5 84.5l45 8v-272zM2273 1315q0 59 -40 99t-99 40t-99 -40t-40 -99t40 -99t99 -40t99 40t40 99z M819 1004h-360v67q0 150 46 207t128 57q72 0 125 -45t78 -102q-16 -78 -17 -172v-12zM1339 1004h-239v79q4 154 43 226.5t139 72.5q63 0 101 -34.5t63 -94.5l24 -59h244q12 16 20.5 43t8.5 51q0 37 -21.5 71t-70.5 61.5t-130 44t-200 16.5q-131 0 -220 -36t-145 -89 q-59 33 -141 55.5t-168 22.5q-111 0 -199 -36t-147 -94.5t-91 -133t-32 -154.5v-12h-119v-68l123 -31v-762l-57 -65h-66v-78h543v78h-82l-61 65v772h364v-772l-57 -65h-66v-78h543v78h-82l-61 65v772h239v89z" />
<glyph unicode="ffb" horiz-adv-x="2488" d="M819 1004h-360v67q0 150 46 207t128 57q72 0 125 -45t78 -102q-16 -70 -17 -148v-36zM1741 799q41 33 81 49t91 16q104 0 160.5 -109.5t56.5 -301.5q0 -193 -54.5 -283t-144.5 -90q-66 0 -110.5 35t-79.5 102v582zM1737 1475l-289 -15q-37 10 -78 15.5t-82 5.5 q-94 0 -183 -30t-157 -95q-25 12 -58.5 26.5t-73.5 25.5t-83 18.5t-86 7.5q-111 0 -199 -36t-147 -94.5t-91 -133t-32 -154.5v-12h-119v-68l123 -31v-762l-57 -65h-66v-78h543v78h-82l-61 65v772h364v-772l-57 -65h-66v-78h543v78h-82l-61 65v772h280v89h-280v188 q2 92 50 140t130 48q63 0 106.5 -26.5t77.5 -73.5v-1188q39 -23 80 -44t94.5 -37.5t121 -27t157.5 -10.5q121 0 214 44t156.5 121t96.5 180.5t33 220.5q0 102 -28 192t-80 156.5t-128 104.5t-174 38q-84 0 -145.5 -36t-120.5 -83h-4v564z" />
<glyph unicode="ff&#xeb;" horiz-adv-x="2330" d="M1667 696q20 127 75.5 176.5t112.5 49.5q55 0 94.5 -34t39.5 -116v-76h-322zM2273 1315q0 59 -40 99t-99 40t-99 -40t-40 -99t40 -99t99 -40t99 40t40 99zM819 1004h-360v67q0 150 46 207t128 57q72 0 125 -45t78 -102q-16 -78 -17 -172v-12zM2241 621v96q0 61 -26 117.5 t-74 100.5t-117.5 69.5t-159.5 25.5q-100 0 -184.5 -45t-144.5 -119.5t-94 -174t-34 -208.5q0 -98 28.5 -190t86 -163t142.5 -114t198 -43q160 0 265 98.5t159 272.5l-48 21q-47 -76 -115.5 -114t-170.5 -38q-55 0 -107.5 19.5t-94.5 63.5t-66.5 113.5t-24.5 170.5v16h557z M1339 1004h-239v79q4 154 43 226.5t139 72.5q63 0 101 -34.5t63 -94.5l24 -59h244q12 16 20.5 43t8.5 51q0 37 -21.5 71t-70.5 61.5t-130 44t-200 16.5q-131 0 -220 -36t-145 -89q-59 33 -141 55.5t-168 22.5q-111 0 -199 -36t-147 -94.5t-91 -133t-32 -154.5v-12h-119v-68 l123 -31v-762l-57 -65h-66v-78h543v78h-82l-61 65v772h364v-772l-57 -65h-66v-78h543v78h-82l-61 65v772h239v89z" />
<glyph unicode="ffh" horiz-adv-x="2525" d="M819 1004h-360v67q0 150 46 207t128 57q72 0 125 -45t78 -102q-16 -70 -17 -148v-36zM1741 860v615l-293 -15q-37 10 -78 15.5t-82 5.5q-94 0 -183 -30t-157 -95q-25 12 -58.5 26.5t-73.5 25.5t-83 18.5t-86 7.5q-111 0 -199 -36t-147 -94.5t-91 -133t-32 -154.5v-12 h-119v-68l123 -31v-762l-57 -65h-66v-78h543v78h-82l-61 65v772h364v-772l-57 -65h-66v-78h543v78h-82l-61 65v772h280v89h-280v188q2 92 50 140t130 48q63 0 106.5 -26.5t77.5 -73.5v-1137l-59 -65h-74v-78h535v78h-68l-57 65v605q49 51 100 81.5t96 30.5q66 0 103 -44 t37 -134v-539l-58 -65h-69v-78h536v78h-71l-62 65v568q0 143 -79 231t-230 88q-86 0 -161 -46t-138 -124h-4z" />
<glyph unicode="ff&#xed;" horiz-adv-x="1921" d="M1282 1382q63 0 110.5 -34.5t55.5 -110.5l2 -47l422 98v187l-201 -121q-18 25 -46 47t-68.5 39.5t-98 29t-137.5 11.5q-131 0 -220 -36t-145 -89q-59 35 -135 56.5t-174 21.5q-111 0 -199 -36t-147 -94.5t-91 -133t-32 -154.5v-12h-119v-68l123 -31v-762l-57 -65h-66v-78 h543v78h-82l-61 65v772h364v-772l-57 -65h-66v-78h543v78h-82l-61 65v772h313l51 -55v-717l-57 -65h-82v-78h567v78h-90l-61 65v861h-641v47q0 170 39 250.5t143 80.5zM459 1071q0 150 46 207t128 57q72 0 125 -45t78 -102q-16 -72 -17 -154v-30h-360v67z" />
<glyph unicode="ff&#xee;" horiz-adv-x="1921" d="M459 1071q0 150 46 207t128 57q72 0 125 -45t78 -102q-16 -72 -17 -154v-30h-360v67zM1174 1481q-80 0 -139.5 -25.5t-114.5 -79.5q-41 18 -108 38t-165 20q-111 0 -199 -36t-147 -94.5t-91 -133t-32 -154.5v-12h-119v-68l123 -31v-762l-57 -65h-66v-78h543v78h-82 l-61 65v772h364v-772l-57 -65h-66v-78h543v78h-82l-61 65v772h313l51 -55v-717l-57 -65h-82v-78h567v78h-90l-61 65v861h-641v196q0 98 20.5 140t69.5 42q96 0 96 -145v-82l316 113l327 -113v57l-327 269l-127 -105q-51 47 -119.5 76t-181.5 29z" />
<glyph unicode="ff&#xef;" horiz-adv-x="1921" d="M1946 1315q0 59 -40 99t-100 40q-59 0 -99 -40t-40 -99t40 -99t99 -40t99.5 40t40.5 99zM459 1071q0 150 46 207t128 57q72 0 125 -45t78 -102q-16 -72 -17 -154v-30h-360v67zM1100 915h313l51 -55v-717l-57 -65h-82v-78h567v78h-90l-61 65v861h-641v243q0 133 78 133 q41 0 65.5 -33.5t24.5 -99.5v-51h221q4 10 10 30.5t6 49.5t-16 64.5t-51 66.5t-92.5 52.5t-139.5 21.5q-180 0 -280 -109q-55 29 -124 45.5t-155 16.5q-111 0 -199 -36t-147 -94.5t-91 -133t-32 -154.5v-12h-119v-68l123 -31v-762l-57 -65h-66v-78h543v78h-82l-61 65v772 h364v-772l-57 -65h-66v-78h543v78h-82l-61 65v772z" />
<glyph unicode="ff&#xec;" horiz-adv-x="1921" d="M459 1071q0 150 46 207t128 57q72 0 125 -45t78 -102q-16 -72 -17 -154v-30h-360v67zM1188 1481q-78 0 -152.5 -30t-122.5 -75q-47 23 -107.5 40.5t-158.5 17.5q-111 0 -199 -36t-147 -94.5t-91 -133t-32 -154.5v-12h-119v-68l123 -31v-762l-57 -65h-66v-78h543v78h-82 l-61 65v772h364v-772l-57 -65h-66v-78h543v78h-82l-61 65v772h313l51 -55v-717l-57 -65h-82v-78h567v78h-90l-61 65v861h-641v176q0 37 4 73.5t16.5 65.5t35 46t58.5 17q51 0 85 -36.5t34 -96.5v-26l539 -68v57l-369 195q-63 35 -143 54.5t-172 19.5z" />
<glyph unicode="ffj" horiz-adv-x="1886" d="M459 1071q0 150 46 207t128 57q72 0 125 -45t78 -102q-16 -72 -17 -154v-30h-360v67zM1206 -215v-72q31 -49 88.5 -94t147.5 -45q63 0 118.5 33t95.5 90t62.5 135t22.5 168v1004h-641v47q0 170 39 250.5t143 80.5q63 0 101 -34.5t63 -94.5l24 -59h244q12 16 20.5 43 t8.5 51q0 37 -21.5 71t-70.5 61.5t-130 44t-200 16.5q-131 0 -220 -36t-145 -89q-59 35 -135 56.5t-174 21.5q-111 0 -199 -36t-147 -94.5t-91 -133t-32 -154.5v-12h-119v-68l123 -31v-762l-57 -65h-66v-78h543v78h-82l-61 65v772h364v-772l-57 -65h-66v-78h543v78h-82 l-61 65v772h313l51 -55v-1075h-258z" />
<glyph unicode="ffk" horiz-adv-x="2412" d="M819 1004h-360v67q0 150 46 207t128 57q72 0 125 -45t78 -102q-16 -70 -17 -148v-36zM1737 1475l-289 -15q-37 10 -78 15.5t-82 5.5q-94 0 -183 -30t-157 -95q-25 12 -58.5 26.5t-73.5 25.5t-83 18.5t-86 7.5q-111 0 -199 -36t-147 -94.5t-91 -133t-32 -154.5v-12h-119 v-68l123 -31v-762l-57 -65h-66v-78h543v78h-82l-61 65v772h364v-772l-57 -65h-66v-78h543v78h-82l-61 65v772h280v89h-280v188q2 92 50 140t130 48q63 0 106.5 -26.5t77.5 -73.5v-1137l-59 -65h-64v-78h510v78h-53l-61 65v363h4l297 -389v-39h-103v-78h480v57l-457 607 l356 294v46h-405v-256l-168 -154h-4v881z" />
<glyph unicode="ff&#xf6;" horiz-adv-x="2437" d="M2068 430q0 -72 -6 -134.5t-24.5 -110.5t-52 -75.5t-87.5 -27.5q-59 0 -103 48t-72.5 122t-43 161t-14.5 165q0 72 9 135t29.5 109t53.5 73t82 27q61 0 105.5 -48.5t72 -122t39.5 -159.5t12 -162zM2367 508q0 117 -36.5 213t-103 164.5t-159 106.5t-202.5 38 q-109 0 -200 -39t-157.5 -108.5t-103.5 -164.5t-37 -208q0 -117 36 -215t102.5 -170t158.5 -112t207 -40q106 0 197.5 41t157 113t103 169t37.5 212zM2273 1315q0 59 -40 99t-99 40t-99 -40t-40 -99t40 -99t99 -40t99 40t40 99zM819 1004h-360v67q0 150 46 207t128 57 q72 0 125 -45t78 -102q-16 -78 -17 -172v-12zM1339 1004h-239v79q4 154 43 226.5t139 72.5q63 0 101 -34.5t63 -94.5l24 -59h244q12 16 20.5 43t8.5 51q0 37 -21.5 71t-70.5 61.5t-130 44t-200 16.5q-131 0 -220 -36t-145 -89q-59 33 -141 55.5t-168 22.5q-111 0 -199 -36 t-147 -94.5t-91 -133t-32 -154.5v-12h-119v-68l123 -31v-762l-57 -65h-66v-78h543v78h-82l-61 65v772h364v-772l-57 -65h-66v-78h543v78h-82l-61 65v772h239v89z" />
<glyph unicode="ff&#xfc;" horiz-adv-x="2519" d="M2273 1315q0 59 -40 99t-99 40t-99 -40t-40 -99t40 -99t99 -40t99 40t40 99zM459 1071q0 150 46 207t128 57q72 0 125 -45t78 -102q-16 -72 -17 -154v-30h-360v67zM1741 1004h-641v47q0 170 39 250.5t143 80.5q63 0 101 -34.5t63 -94.5l24 -59h244q12 16 20.5 43t8.5 51 q0 37 -21.5 71t-70.5 61.5t-130 44t-200 16.5q-131 0 -220 -36t-145 -89q-59 35 -135 56.5t-174 21.5q-111 0 -199 -36t-147 -94.5t-91 -133t-32 -154.5v-12h-119v-68l123 -31v-762l-57 -65h-66v-78h543v78h-82l-61 65v772h364v-772l-57 -65h-66v-78h543v78h-82l-61 65v772 h313l51 -55v-567q0 -143 78 -231.5t221 -88.5q82 0 162 47.5t152 147.5h4l-17 -188l424 20v78h-88l-59 65v881l-399 -20v-78h63l59 -66v-604q-49 -51 -89 -82t-101 -31t-97 44t-36 135v682z" />
<glyph unicode="ffy" horiz-adv-x="2349" d="M819 1004h-360v67q0 150 46 207t128 57q72 0 125 -45t78 -102q-16 -78 -17 -172v-12zM1100 915h186l430 -1097h-377v-103q33 -49 90.5 -95t143.5 -46q96 0 167.5 71.5t112.5 182.5l394 1057l57 61v58h-381v-78h102l62 -152l-221 -612h-4l-248 698l55 66h113v78h-682v243 q0 133 78 133q41 0 65.5 -33.5t24.5 -99.5v-51h221q4 10 10 30.5t6 49.5t-16 64.5t-51 66.5t-92.5 52.5t-139.5 21.5q-88 0 -158.5 -27t-121.5 -84q-47 18 -118 41t-161 23q-111 0 -199 -36t-147 -94.5t-91 -133t-32 -154.5v-12h-119v-68l123 -31v-762l-57 -65h-66v-78h543 v78h-82l-61 65v772h364v-772l-57 -65h-66v-78h543v78h-82l-61 65v772z" />
<glyph unicode="ff&#xfd;" horiz-adv-x="2349" d="M2126 1268v213l-541 -269v-57zM819 1004h-360v67q0 150 46 207t128 57q72 0 125 -45t78 -102q-16 -78 -17 -172v-12zM1100 915h186l430 -1097h-377v-103q33 -49 90.5 -95t143.5 -46q96 0 167.5 71.5t112.5 182.5l394 1057l57 61v58h-381v-78h102l62 -152l-221 -612h-4 l-248 698l55 66h113v78h-682v243q0 133 78 133q41 0 65.5 -33.5t24.5 -99.5v-51h221q4 10 10 30.5t6 49.5t-16 64.5t-51 66.5t-92.5 52.5t-139.5 21.5q-88 0 -158.5 -27t-121.5 -84q-47 18 -118 41t-161 23q-111 0 -199 -36t-147 -94.5t-91 -133t-32 -154.5v-12h-119v-68 l123 -31v-762l-57 -65h-66v-78h543v78h-82l-61 65v772h364v-772l-57 -65h-66v-78h543v78h-82l-61 65v772z" />
<glyph unicode="ff&#xff;" horiz-adv-x="2349" d="M2273 1315q0 59 -40 99t-99 40t-99 -40t-40 -99t40 -99t99 -40t99 40t40 99zM819 1004h-360v67q0 150 46 207t128 57q72 0 125 -45t78 -102q-16 -78 -17 -172v-12zM1782 1004h-682v79q4 154 43 226.5t139 72.5q63 0 101 -34.5t63 -94.5l24 -59h244q12 16 20.5 43t8.5 51 q0 37 -21.5 71t-70.5 61.5t-130 44t-200 16.5q-131 0 -220 -36t-145 -89q-59 33 -141 55.5t-168 22.5q-111 0 -199 -36t-147 -94.5t-91 -133t-32 -154.5v-12h-119v-68l123 -31v-762l-57 -65h-66v-78h543v78h-82l-61 65v772h364v-772l-57 -65h-66v-78h543v78h-82l-61 65v772 h186l430 -1097h-377v-103q33 -49 90.5 -95t143.5 -46q96 0 167.5 71.5t112.5 182.5l394 1057l57 61v58h-381v-78h102l62 -152l-221 -612h-4l-248 698l55 66h113v78z" />
<glyph unicode="fh" horiz-adv-x="1884" d="M1100 860v615l-293 -15q-37 10 -78 15.5t-82 5.5q-86 0 -171 -27t-150.5 -83t-106.5 -144t-41 -211v-12h-119v-68l123 -31v-762l-57 -65h-66v-78h543v78h-82l-61 65v772h280v89h-280v180q0 96 48 146t132 50q63 0 106 -26.5t78 -73.5v-1137l-59 -65h-74v-78h535v78h-68 l-57 65v605q49 51 100 81.5t96 30.5q66 0 103 -44t37 -134v-539l-58 -65h-69v-78h536v78h-71l-62 65v568q0 143 -79 231t-230 88q-86 0 -161 -46t-138 -124h-4z" />
<glyph unicode="f&#xed;" horiz-adv-x="1280" d="M1030 1354q-18 25 -46 47t-69 39.5t-98 29t-137 11.5q-113 0 -192.5 -25.5t-136 -67.5t-90.5 -94.5t-52.5 -103.5t-24.5 -97t-6 -77v-12h-119v-68l123 -31v-762l-57 -65h-66v-78h533v78h-72l-61 65v772h313l51 -55v-717l-57 -65h-82v-78h567v78h-90l-61 65v861h-641v47 q0 170 39 250.5t143 80.5q63 0 110.5 -34.5t55.5 -110.5l2 -47l422 98v187z" />
<glyph unicode="f&#xee;" horiz-adv-x="1280" d="M532 1481q-90 0 -155.5 -36t-110.5 -92.5t-66.5 -125t-21.5 -135.5v-88h-119v-68l123 -31v-762l-57 -65h-66v-78h533v78h-72l-61 65v772h313l51 -55v-717l-57 -65h-82v-78h567v78h-90l-61 65v861h-641v196q0 98 20.5 140t69.5 42q96 0 96 -145v-82l316 113l327 -113v57 l-327 269l-127 -105q-51 47 -120 76t-182 29z" />
<glyph unicode="f&#xef;" horiz-adv-x="1280" d="M1305 1315q0 59 -40 99t-100 40q-59 0 -99 -40t-40 -99t40 -99t99 -40t99.5 40t40.5 99zM459 915h313l51 -55v-717l-57 -65h-82v-78h567v78h-90l-61 65v861h-641v243q0 133 78 133q41 0 65.5 -33.5t24.5 -99.5v-51h221q4 10 10 30.5t6 49.5t-16.5 64.5t-51 66.5t-92 52.5 t-139.5 21.5q-88 0 -159.5 -27t-122 -83t-78 -144t-27.5 -211v-12h-119v-68l123 -31v-762l-57 -65h-66v-78h543v78h-82l-61 65v772z" />
<glyph unicode="f&#xec;" horiz-adv-x="1280" d="M692 1223l539 -68v57l-369 195q-63 35 -143 54.5t-172 19.5q-117 0 -189.5 -43t-112.5 -103.5t-53.5 -126t-13.5 -110.5v-94h-119v-68l123 -31v-762l-57 -65h-66v-78h533v78h-72l-61 65v772h313l51 -55v-717l-57 -65h-82v-78h567v78h-90l-61 65v861h-641v176q0 37 4 73.5 t16.5 65.5t35 46t58.5 17q51 0 85 -36.5t34 -96.5v-26z" />
<glyph unicode="fj" horiz-adv-x="1245" d="M1100 1004h-641v47q0 170 39 250.5t143 80.5q63 0 101 -34.5t63 -94.5l24 -59h244q12 16 20.5 43t8.5 51q0 37 -21.5 71t-70.5 61.5t-130 44t-200 16.5q-113 0 -192.5 -25.5t-136 -67.5t-90.5 -94.5t-52.5 -103.5t-24.5 -97t-6 -77v-12h-119v-68l123 -31v-762l-57 -65 h-66v-78h533v78h-72l-61 65v772h313l51 -55v-1075h-258v-72q31 -49 88.5 -94t147.5 -45q63 0 118.5 33t95.5 90t62.5 135t22.5 168v1004z" />
<glyph unicode="fk" horiz-adv-x="1771" d="M1098 1475l-291 -15q-37 10 -78 15.5t-82 5.5q-86 0 -171 -27t-150.5 -83t-106.5 -144t-41 -211v-12h-119v-68l123 -31v-762l-57 -65h-66v-78h543v78h-82l-61 65v772h260v89h-260v180q0 96 48 146t132 50q63 0 106 -26.5t78 -73.5v-1137l-59 -65h-64v-78h510v78h-53 l-61 65v363h4l297 -389v-39h-103v-78h480v57l-457 607l356 294v46h-405v-256l-168 -154h-4z" />
<glyph unicode="f&#xf6;" horiz-adv-x="1796" d="M1427 430q0 -72 -6 -134.5t-24.5 -110.5t-52 -75.5t-87.5 -27.5q-59 0 -103 48t-72.5 122t-43 161t-14.5 165q0 72 9 135t29.5 109t53.5 73t82 27q61 0 105.5 -48.5t72 -122t39.5 -159.5t12 -162zM1726 508q0 117 -36.5 213t-103 164.5t-159 106.5t-202.5 38 q-109 0 -200 -39t-157.5 -108.5t-103.5 -164.5t-37 -208q0 -117 36 -215t102.5 -170t158.5 -112t207 -40q106 0 197.5 41t157 113t103 169t37.5 212zM1632 1315q0 59 -40 99t-99 40t-99 -40t-40 -99t40 -99t99 -40t99 40t40 99zM748 1004h-289v47q0 170 39 250.5t143 80.5 q63 0 101 -34.5t63 -94.5l24 -59h244q12 16 20.5 43t8.5 51q0 37 -21.5 71t-70.5 61.5t-130 44t-200 16.5q-113 0 -192.5 -25.5t-136 -67.5t-90.5 -94.5t-52.5 -103.5t-24.5 -97t-6 -77v-12h-119v-68l123 -31v-762l-57 -65h-66v-78h533v78h-72l-61 65v772h289v89z" />
<glyph unicode="f&#xfc;" horiz-adv-x="1878" d="M1632 1315q0 59 -40 99t-99 40t-99 -40t-40 -99t40 -99t99 -40t99 40t40 99zM823 860v-567q0 -143 78 -231.5t221 -88.5q82 0 162 47.5t152 147.5h4l-17 -188l424 20v78h-88l-59 65v881l-400 -20v-78h64l59 -66v-604q-49 -51 -89 -82t-101 -31t-97 44t-36 135v682h-641 v47q0 170 39 250.5t143 80.5q63 0 101 -34.5t63 -94.5l24 -59h244q12 16 20.5 43t8.5 51q0 37 -21.5 71t-70.5 61.5t-130 44t-200 16.5q-113 0 -192.5 -25.5t-136 -67.5t-90.5 -94.5t-52.5 -103.5t-24.5 -97t-6 -77v-12h-119v-68l123 -31v-762l-57 -65h-66v-78h533v78h-72 l-61 65v772h313z" />
<glyph unicode="fy" horiz-adv-x="1708" d="M459 1247q0 133 78 133q41 0 65.5 -33.5t24.5 -99.5v-51h221q4 10 10 30.5t6 49.5t-16.5 64.5t-51 66.5t-92 52.5t-139.5 21.5q-88 0 -159.5 -27t-122 -83t-78 -144t-27.5 -211v-12h-119v-68l123 -31v-762l-57 -65h-66v-78h543v78h-82l-61 65v772h186l430 -1097h-377 v-103q33 -49 90.5 -95t143.5 -46q96 0 167.5 71.5t112.5 182.5l394 1057l57 61v58h-381v-78h102l62 -152l-221 -612h-4l-248 698l55 66h113v78h-682v243z" />
<glyph unicode="f&#xfd;" horiz-adv-x="1708" d="M1481 1268v213l-541 -269v-57zM459 1247q0 133 78 133q41 0 65.5 -33.5t24.5 -99.5v-51h221q4 10 10 30.5t6 49.5t-16.5 64.5t-51 66.5t-92 52.5t-139.5 21.5q-88 0 -159.5 -27t-122 -83t-78 -144t-27.5 -211v-12h-119v-68l123 -31v-762l-57 -65h-66v-78h543v78h-82 l-61 65v772h186l430 -1097h-377v-103q33 -49 90.5 -95t143.5 -46q96 0 167.5 71.5t112.5 182.5l394 1057l57 61v58h-381v-78h102l62 -152l-221 -612h-4l-248 698l55 66h113v78h-682v243z" />
<glyph unicode="f&#xff;" horiz-adv-x="1708" d="M1632 1315q0 59 -40 99t-99 40t-99 -40t-40 -99t40 -99t99 -40t99 40t40 99zM459 915h186l430 -1097h-377v-103q33 -49 90.5 -95t143.5 -46q96 0 167.5 71.5t112.5 182.5l394 1057l57 61v58h-381v-78h102l62 -152l-221 -612h-4l-248 698l55 66h113v78h-682v47 q0 170 39 250.5t143 80.5q63 0 101 -34.5t63 -94.5l24 -59h244q12 16 20.5 43t8.5 51q0 37 -21.5 71t-70.5 61.5t-130 44t-200 16.5q-113 0 -192.5 -25.5t-136 -67.5t-90.5 -94.5t-52.5 -103.5t-24.5 -97t-6 -77v-12h-119v-68l123 -31v-762l-57 -65h-66v-78h533v78h-72 l-61 65v772z" />
<glyph horiz-adv-x="0" />
<glyph unicode="&#xd;" horiz-adv-x="1024" />
<glyph horiz-adv-x="0" />
<glyph horiz-adv-x="0" />
<glyph unicode=" "  horiz-adv-x="499" />
<glyph unicode="&#x09;" horiz-adv-x="499" />
<glyph unicode="&#xa0;" horiz-adv-x="499" />
<glyph unicode="!" horiz-adv-x="604" d="M440 113q0 59 -40 99t-99 40t-99 -40t-40 -99t40 -99.5t99 -40.5t99 40.5t40 99.5zM440 1006v448h-276v-448l100 -600h76z" />
<glyph unicode="&#x22;" horiz-adv-x="720" d="M272 952v502h-139v-502h139zM588 952v502h-139v-502h139z" />
<glyph unicode="#" horiz-adv-x="1208" d="M510 903h285l-99 -362h-284zM1014 541h-195l99 362h196l25 101h-193l121 450h-123l-121 -450h-284l120 450h-122l-121 -450h-197l-24 -101h192l-98 -362h-195l-24 -103h192l-119 -438h123l119 438h285l-119 -438h123l119 438h196z" />
<glyph unicode="$" horiz-adv-x="1165" d="M328 1194q0 27 10 58.5t33.5 58t61.5 45t93 20.5v-422q-86 43 -142 97.5t-56 142.5zM655 102v418q47 -25 89 -49.5t73 -54t48.5 -64.5t17.5 -78q0 -78 -50.5 -125t-166.5 -47h-11zM655 -102v77q86 4 162 34t132.5 82t89 125t32.5 163q0 115 -37 196.5t-96 140t-134 100.5 t-149 77v453q80 -41 142.5 -127t101.5 -207l16 -51h82v512h-59l-33 -60q-47 20 -108.5 40t-141.5 26v77h-129v-79q-96 -10 -170.5 -45t-128 -87.5t-81 -118t-27.5 -136.5q0 -111 35.5 -191t93 -138.5t131.5 -101.5t147 -77v-449q-86 41 -157.5 122t-124.5 191l-49 101h-62 v-565h62l61 75q47 -20 110.5 -43.5t159.5 -33.5v-82h129z" />
<glyph unicode="%" horiz-adv-x="1900" d="M1573 406q0 -180 -25.5 -258t-77.5 -78q-51 0 -77.5 80.5t-26.5 255.5q0 176 26.5 259t75.5 83t77 -81t28 -261zM1829 406q0 98 -23.5 178t-68.5 136t-111.5 88t-155.5 32q-88 0 -154.5 -32t-111.5 -89t-68.5 -137t-23.5 -176t23.5 -176t68.5 -136.5t111.5 -88.5 t154.5 -32t155 31t112 88.5t68.5 137.5t23.5 176zM1575 1454h-150l-1120 -1454h158zM532 1047q0 -180 -25.5 -258t-76.5 -78t-77.5 80.5t-26.5 255.5q0 176 26.5 259t75.5 83t76.5 -81t27.5 -261zM788 1047q0 98 -23.5 178t-68.5 136t-111.5 88t-154.5 32t-154.5 -32 t-111.5 -89t-68.5 -137t-23.5 -176t23.5 -176t68.5 -136.5t111.5 -88.5t154.5 -32t154.5 31t111.5 88.5t68.5 137.5t23.5 176z" />
<glyph unicode="&#x26;" horiz-adv-x="1480" d="M766 1210q0 -80 -26.5 -141t-71.5 -113q-59 78 -108.5 145.5t-49.5 139.5q0 66 29.5 104.5t93.5 38.5q133 0 133 -174zM391 412q0 90 34 158.5t87 125.5l295 -401q-102 -78 -225 -78q-82 0 -136.5 53.5t-54.5 141.5zM276 1167q0 -76 41 -167t134 -218q-61 -43 -121 -88 t-106 -100t-73.5 -123t-27.5 -156q0 -78 27.5 -140t78 -107t120 -70t153.5 -25q119 0 215 47.5t184 145.5l121 -166h403v57l-131 86l-217 281q51 92 103.5 204.5t109.5 248.5l127 69v58h-420v-78h84l82 -66q-43 -98 -84 -181t-82 -153l-266 346q55 37 107.5 75t92.5 78 t64.5 86t24.5 101q0 86 -38 138.5t-94.5 82t-122 39t-118.5 9.5q-80 0 -148.5 -19.5t-117.5 -59.5t-77 -98.5t-28 -136.5z" />
<glyph unicode="'" horiz-adv-x="407" d="M274 952v502h-141v-502h141z" />
<glyph unicode="(" horiz-adv-x="653" d="M279 508q0 133 22.5 267t66.5 258t110.5 231.5t154.5 187.5l-33 66q-135 -76 -234.5 -188.5t-165 -248t-98 -283t-32.5 -290.5q0 -139 35.5 -285.5t104.5 -278.5t167 -243t225 -178l31 67q-98 92 -166 200t-110 225.5t-60 241.5t-18 251z" />
<glyph unicode=")" horiz-adv-x="653" d="M375 508q0 -127 -18.5 -251t-60.5 -241.5t-109.5 -225t-166.5 -200.5l31 -67q125 68 224.5 178.5t168 242.5t104.5 278.5t36 285.5q0 143 -33 290.5t-98.5 283t-165 248t-234.5 188.5l-33 -66q88 -80 155 -187.5t111 -231.5t66.5 -258t22.5 -267z" />
<glyph unicode="*" horiz-adv-x="913" d="M317 1399l93 -240l-4 -4l-199 164l-121 -107l31 -159l258 14l2 -6l-215 -139l63 -148l162 -18l66 252h4l69 -250l160 14l66 148l-217 137l2 6l258 -10l34 157l-120 107l-201 -164l-4 4l92 242l-139 82z" />
<glyph unicode="+" horiz-adv-x="1019" d="M940 516v115h-367v373h-127v-373h-366v-115h366v-389h127v389h367z" />
<glyph unicode="," horiz-adv-x="495" d="M117 -289q125 47 197.5 146.5t72.5 222.5q0 84 -42 128t-101 44t-98.5 -40t-39.5 -99q0 -57 44.5 -97.5t121.5 -42.5q0 -39 -15 -72.5t-39.5 -62t-55.5 -50t-62 -34.5z" />
<glyph unicode="-" horiz-adv-x="700" d="M575 545v102h-450v-102h450z" />
<glyph unicode="." horiz-adv-x="491" d="M385 113q0 59 -40 99t-99 40t-99.5 -40t-40.5 -99t40 -99.5t100 -40.5q59 0 99 40.5t40 99.5z" />
<glyph unicode="/" horiz-adv-x="917" d="M51 0h119l700 1454h-118z" />
<glyph unicode="0" d="M858 725q0 -109 -10 -223.5t-37 -209.5t-70 -155.5t-106 -60.5q-66 0 -109 60.5t-68.5 155.5t-36.5 209.5t-11 223.5t10 224.5t35.5 210.5t68.5 156.5t109 61.5t108.5 -61.5t69.5 -156.5t37 -210.5t10 -224.5zM1171 725q0 143 -32.5 278.5t-98 242t-167 171t-238.5 64.5 q-131 0 -231.5 -64.5t-168 -171t-102.5 -243t-35 -277.5t35 -275.5t103.5 -241t169 -171t229.5 -64.5t229.5 64.5t169 170t103 241t34.5 276.5z" />
<glyph unicode="1" horiz-adv-x="800" d="M96 1239v-92l178 86v-1069l-81 -86h-105v-78h643v78h-102l-82 86v1311h-45z" />
<glyph unicode="2" horiz-adv-x="1165" d="M561 1380q78 0 115 -74.5t37 -199.5q0 -115 -44 -234.5t-126 -244.5t-200 -256t-263 -269v-102h907l92 451h-37l-168 -183h-512v4q135 96 256 186.5t212.5 186.5t144.5 204.5t53 244.5q0 98 -36 170.5t-97 121t-143 72t-174 23.5t-178.5 -27t-152 -78t-104.5 -124.5 t-39 -168.5q0 -59 13 -79h295v83q0 141 35.5 217t113.5 76z" />
<glyph unicode="3" horiz-adv-x="1112" d="M987 1331v123h-717l-71 27h-41l-43 -295h524v-4l-330 -324v-113q35 20 96.5 43t126.5 23q113 0 165.5 -71.5t52.5 -200.5q0 -63 -18.5 -122t-53.5 -103t-87 -69.5t-122 -25.5t-121 11.5t-91 33t-70.5 50t-61.5 65.5l-47 -21q51 -172 155.5 -278.5t268.5 -106.5 q119 0 212 44t158.5 116t100.5 165t35 191q0 76 -25 152t-76 135.5t-130 96t-185 36.5q-51 0 -82 -7t-55 -17v4z" />
<glyph unicode="4" horiz-adv-x="1071" d="M543 1454q-43 -123 -86 -240.5t-99.5 -239.5t-135.5 -249t-191 -268v-56h491v-235l-84 -88h-110v-78h649v78h-103l-81 88v235h206v103h-206v438h-58l-213 -266v-172h-350v4q113 113 215 225.5t191.5 228t163 237.5t128.5 255h-327z" />
<glyph unicode="5" horiz-adv-x="1124" d="M354 1186h574l61 295h-41l-71 -27h-607l-145 -786h82q66 104 141.5 153t169.5 49q127 0 191.5 -85t64.5 -226q0 -66 -18.5 -127t-55 -108.5t-93 -76t-132.5 -28.5q-111 0 -195.5 43t-170.5 119l-48 -21q27 -86 72 -157.5t104.5 -121.5t133 -79t155.5 -29q119 0 212 44 t159 116t100.5 165t34.5 191q0 90 -29.5 177.5t-88 156t-146.5 110.5t-207 42q-96 0 -164.5 -24.5t-117.5 -61.5h-5z" />
<glyph unicode="6" horiz-adv-x="1136" d="M760 395q0 -174 -40 -243.5t-122 -69.5q-49 0 -87 35t-63.5 92t-40 133t-14.5 158q0 299 166 299q51 0 89 -34t62.5 -91.5t37 -130t12.5 -148.5zM88 500q0 -104 36 -200.5t102.5 -168.5t158.5 -115t207 -43q94 0 181 35t151.5 98.5t103.5 150.5t39 189q0 106 -34 192.5 t-93 146t-144 91t-186 31.5q-80 0 -125 -13t-71 -28h-4q31 86 81 166t112.5 149.5t133 125t142.5 96.5v78q-227 -88 -379 -213t-243 -260.5t-130 -269.5t-39 -238z" />
<glyph unicode="7" horiz-adv-x="1026" d="M145 1481l-90 -480h37l152 185h542v-4q-109 -135 -207 -286t-175.5 -304.5t-132 -305t-74.5 -286.5h327q6 147 35 317t87.5 347.5t148.5 352.5t221 335v102h-758l-72 27h-41z" />
<glyph unicode="8" horiz-adv-x="1138" d="M381 1204q0 92 51 130t117 38q33 0 64.5 -11t57 -37t42 -68t16.5 -103q0 -84 -22.5 -154.5t-63.5 -119.5q-53 39 -100 77.5t-83 78.5t-57.5 81t-21.5 88zM367 365q0 86 29.5 164.5t66.5 136.5q61 -47 119.5 -90.5t104.5 -87.5t73.5 -91t27.5 -100q0 -104 -53 -156.5 t-135 -52.5q-41 0 -82 17.5t-74.5 51t-55 86t-21.5 122.5zM1042 381q0 72 -29.5 134.5t-76.5 117.5t-107.5 104t-123.5 97q131 66 208.5 154.5t77.5 209.5q0 63 -31.5 115.5t-88 89.5t-133 57.5t-165.5 20.5q-90 0 -167.5 -21.5t-135 -64.5t-90.5 -105.5t-33 -142.5 q0 -70 20.5 -130.5t54.5 -112.5t79 -98t94 -87q-59 -29 -112.5 -72t-95.5 -96t-66.5 -114.5t-24.5 -125.5q0 -90 38 -153.5t100.5 -104.5t144.5 -60.5t168 -19.5q102 0 192 27t158 78t106.5 128t38.5 175z" />
<glyph unicode="9" horiz-adv-x="1136" d="M377 1059q0 174 40 243.5t122 69.5q49 0 87 -34.5t63.5 -92t39.5 -133.5t14 -158q0 -299 -165 -299q-51 0 -89 34t-63 91.5t-37 129t-12 149.5zM1049 954q0 104 -36 200.5t-102.5 168.5t-160 115t-205.5 43q-96 0 -182.5 -36t-151 -98.5t-103 -149.5t-38.5 -189 q0 -109 33.5 -194t93 -144.5t143.5 -91t186 -31.5q80 0 125 13t72 28h4q-31 -86 -81 -166t-112.5 -149.5t-133 -126t-142.5 -95.5v-78q227 88 378.5 213t243 260.5t130.5 269.5t39 238z" />
<glyph unicode=":" horiz-adv-x="528" d="M403 113q0 59 -39.5 99t-99.5 40q-59 0 -99 -40t-40 -99t40 -99.5t99 -40.5t99 40.5t40 99.5zM403 891q0 57 -39.5 98t-99.5 41q-59 0 -99 -41t-40 -98q0 -59 40 -100t99 -41t99 41t40 100z" />
<glyph unicode=";" horiz-adv-x="540" d="M141 -289q125 47 198 146.5t73 222.5q0 84 -42 128t-102 44q-59 0 -98 -40t-39 -99q0 -57 44 -97.5t122 -42.5q0 -39 -15.5 -72.5t-40 -62t-55 -50t-61.5 -34.5zM408 891q0 57 -40 98t-100 41q-59 0 -99 -41t-40 -98q0 -59 40 -100t99 -41t99.5 41t40.5 100z" />
<glyph unicode="&#x3c;" horiz-adv-x="1034" d="M924 43v143l-709 383l709 375v143l-858 -473v-100z" />
<glyph unicode="=" horiz-adv-x="1277" d="M1143 291v115h-1008v-115h1008zM1143 739v115h-1008v-115h1008z" />
<glyph unicode="&#x3e;" horiz-adv-x="1034" d="M969 514v100l-858 473v-143l708 -375l-708 -383v-143z" />
<glyph unicode="?" horiz-adv-x="933" d="M868 1196q0 147 -105.5 216t-295.5 69q-55 0 -123 -16.5t-128 -49.5t-100 -84t-40 -121q0 -59 12 -80h254v117q0 55 27.5 100.5t95.5 45.5t95.5 -44t27.5 -102q0 -63 -19.5 -118.5t-49.5 -108.5t-64.5 -105.5t-64.5 -107.5t-49 -116.5t-19 -131.5q0 -61 12 -102t16 -51 h70v18q0 106 32.5 182t83 133.5t108.5 104.5t108.5 98t83 110.5t32.5 143.5zM537 113q0 59 -40 99t-100 40q-59 0 -99 -40t-40 -99t40 -99.5t99 -40.5t99.5 40.5t40.5 99.5z" />
<glyph unicode="@" horiz-adv-x="1763" d="M977 236q-45 -51 -89 -74t-87 -23t-67.5 40t-24.5 95q0 80 59 141.5t164 84.5l45 8v-272zM870 930q45 0 76 -29t31 -117v-176l-107 -12q-96 -12 -178 -41t-141 -74t-93 -107.5t-34 -140.5t24.5 -129t62.5 -79.5t85 -40t90 -11.5q86 0 153.5 37t141.5 123h4v-133h500 q78 98 125 222t47 259q0 164 -62.5 306.5t-169 247t-248 163.5t-296.5 59q-158 0 -298.5 -59t-246 -163.5t-168 -247t-62.5 -306.5q0 -137 45.5 -260t124.5 -221h105q-90 94 -141.5 217t-51.5 264q0 143 54.5 270.5t148.5 221.5t221 148.5t271 54.5q143 0 270 -54.5 t221 -148.5t148.5 -221t54.5 -271q0 -121 -37 -224t-106 -200h-121l-60 66v614q0 59 -18 112.5t-61.5 93.5t-117 63.5t-184.5 23.5q-55 0 -122.5 -16.5t-128 -49t-100.5 -84t-40 -120.5q0 -59 13 -80h262v115q0 61 34.5 98t79.5 37z" />
<glyph unicode="A" horiz-adv-x="1462" d="M635 1247l231 -672h-467zM139 205l-114 -148v-57h483v78h-174l-60 141l88 254h541l107 -309l-62 -86h-141v-78h645v57l-111 107l-507 1372h-21l-235 -119z" />
<glyph unicode="B" horiz-adv-x="1386" d="M66 1376h124l80 -86v-1126l-80 -86h-124v-78h630q131 0 242 25.5t190.5 80t124.5 136.5t45 192q0 102 -39.5 170t-98 108t-125 56t-117.5 20v5q61 12 119.5 34.5t104.5 61.5t73.5 95t27.5 140q0 104 -47 170t-118.5 101t-159 47t-166.5 12h-686v-78zM563 805v514 q10 6 29.5 11t42 10.5t46.5 8.5t44 3q90 0 151.5 -61.5t61.5 -180.5q0 -59 -12.5 -114.5t-41 -97.5t-74.5 -67.5t-114 -25.5h-133zM741 102q-57 0 -103 11.5t-75 27.5v561h133q135 0 208 -71.5t73 -214.5t-52.5 -228.5t-183.5 -85.5z" />
<glyph unicode="C" horiz-adv-x="1443" d="M766 1374q154 0 261.5 -95t180.5 -261l31 -70h82v525h-61l-52 -76q-66 31 -165 57.5t-246 26.5q-162 0 -294 -59.5t-225.5 -162t-143.5 -239.5t-50 -295q0 -156 48 -292t137 -238.5t217 -162t290 -59.5q127 -4 228.5 42t178.5 115t127 149.5t76 146.5l-77 29 q-92 -129 -202 -186.5t-241 -57.5q-115 0 -208 47t-158.5 129t-102.5 192.5t-37 235.5q0 127 32 230.5t87.5 176t129 112.5t157.5 40z" />
<glyph unicode="D" horiz-adv-x="1533" d="M563 1319q14 8 37 16q18 6 46 11.5t63 5.5q98 0 176 -52.5t131 -143.5t80.5 -215t27.5 -269q0 -137 -19.5 -239.5t-63.5 -171t-116.5 -102.5t-179.5 -34q-41 0 -75.5 6t-57.5 16q-29 8 -49 23v1149zM715 0q143 0 276 56.5t234.5 156.5t162 235.5t60.5 294.5 q0 160 -43 290t-132 224.5t-226.5 145.5t-327.5 51h-653v-78h124l80 -86v-1126l-80 -86h-124v-78h649z" />
<glyph unicode="E" horiz-adv-x="1361" d="M946 1352l230 -328h36v430h-1146v-78h124l80 -86v-1126l-80 -86h-124v-78h1142l92 451h-36l-322 -349h-379v609h160l188 -308h37v717h-37l-188 -307h-160v539h383z" />
<glyph unicode="F" horiz-adv-x="1257" d="M946 1352l230 -328h36v430h-1146v-78h124l80 -86v-1126l-80 -86h-124v-78h753v78h-180l-76 86v547h160l188 -308h37v717h-37l-188 -307h-160v539h383z" />
<glyph unicode="G" horiz-adv-x="1503" d="M766 1374q154 0 261.5 -95t180.5 -261l31 -70h82v525h-61l-52 -76q-66 31 -165 57.5t-246 26.5q-162 0 -294 -59.5t-225.5 -162t-143.5 -239.5t-50 -295q0 -156 48 -292t137 -238.5t217 -162t290 -59.5q139 -4 245.5 49.5t184.5 131.5l125 -172h62v698h-473v-74h102 l76 -90v-254q-104 -51 -232 -51q-115 0 -208 47t-158.5 129t-102.5 192.5t-37 235.5q0 127 32 230.5t87.5 176t129 112.5t157.5 40z" />
<glyph unicode="H" horiz-adv-x="1669" d="M1399 1290l78 86h127v78h-709v-78h131l80 -86v-465h-543v465l78 86h133v78h-708v-78h124l80 -86v-1126l-80 -86h-124v-78h708v78h-133l-78 86v559h543v-559l-80 -86h-131v-78h709v78h-127l-78 86v1126z" />
<glyph unicode="I" horiz-adv-x="843" d="M573 1290l78 86h127v78h-712v-78h124l80 -86v-1126l-80 -86h-124v-78h712v78h-127l-78 86v1126z" />
<glyph unicode="J" horiz-adv-x="1015" d="M479 68h-37q-57 0 -101 35.5t-83 123.5l-266 -75q49 -98 141 -140.5t215 -38.5q88 0 165 25t134.5 74t91 123.5t33.5 175.5v919l80 86h125v78h-776v-78h215l63 -86v-1222z" />
<glyph unicode="K" horiz-adv-x="1449" d="M563 788v502l78 86h109v78h-684v-78h124l80 -86v-1126l-80 -86h-124v-78h708v78h-133l-78 86v528h4l430 -528v-86h-98v-78h580v57l-672 809l573 531v57h-512v-78h97v-211l-398 -377h-4z" />
<glyph unicode="L" horiz-adv-x="1251" d="M637 1374l168 -2v82h-739v-78h124l80 -86v-1126l-80 -86h-124v-78h1081l92 451h-37l-321 -349h-318v1188z" />
<glyph unicode="M" horiz-adv-x="1984" d="M1927 0v78h-143l-82 86v1147l41 65h184v78h-473l-436 -1042h-4l-471 1042h-486v-78h164l62 -106v-1065l-82 -127h-144v-78h605v78h-168l-97 127v850h4l498 -1075h49l457 1095h4v-911l-84 -86h-106v-78h708z" />
<glyph unicode="N" horiz-adv-x="1597" d="M1559 1376v78h-582v-78h145l97 -127v-768h-5l-735 973h-352v-57l145 -197v-993l-84 -129h-141v-78h582v78h-146l-96 129v866h4l830 -1093h112v1269l88 127h138z" />
<glyph unicode="O" horiz-adv-x="1593" d="M879 100q-111 0 -199 60.5t-150.5 166t-96.5 247t-34 300.5q0 236 90.5 362t239.5 126q111 0 197 -63.5t145 -171t91 -250t32 -297.5q0 -236 -82.5 -358t-232.5 -122zM797 1481q-162 0 -294 -59.5t-225.5 -162t-143.5 -239.5t-50 -295q0 -156 51 -292t144.5 -238.5 t224.5 -162t293 -59.5t294 59.5t225 162t143 239.5t50 295q0 156 -51 292t-144 238.5t-224 162t-293 59.5z" />
<glyph unicode="P" horiz-adv-x="1288" d="M563 1296q29 14 69 24.5t93 10.5q35 0 74 -13t71.5 -45t54 -84t21.5 -130q0 -84 -19.5 -146.5t-53 -104.5t-77.5 -62.5t-91 -20.5h-58v-72h74q111 0 207 32t167.5 88t112.5 135t41 171q0 106 -37.5 178t-107.5 116t-170 62.5t-223 18.5h-645v-78h120l84 -86v-1126 l-84 -86h-120v-78h761v78h-184l-80 86v1132z" />
<glyph unicode="Q" horiz-adv-x="1593" d="M879 100q-111 0 -199 60.5t-150.5 166t-96.5 247t-34 300.5q0 236 90.5 362t239.5 126q111 0 197 -63.5t145 -171t91 -250t32 -297.5q0 -236 -82.5 -358t-232.5 -122zM797 1481q-162 0 -294 -59.5t-225.5 -162t-143.5 -239.5t-50 -295q0 -152 48 -285t136 -234.5 t212 -162.5t278 -68l286 -374h445v39l-551 348q131 25 236.5 90t180.5 163.5t114.5 223.5t39.5 264q0 156 -51 292t-144 238.5t-224 162t-293 59.5z" />
<glyph unicode="R" horiz-adv-x="1425" d="M66 1454v-78h122l82 -86v-1124l-82 -88h-122v-78h731v78h-152l-82 88v493h12q47 0 79 -29.5t61 -80.5l309 -549h403v37l-137 86l-293 516l-166 55v4q106 14 190.5 50t143 85.5t89 111t30.5 128.5q0 176 -126 278.5t-359 102.5h-733zM563 1298q27 8 55 17q25 6 56 11t61 5 q45 0 89 -13t79 -46t56.5 -88.5t21.5 -139.5q0 -154 -70.5 -217t-195.5 -63h-152v534z" />
<glyph unicode="S" horiz-adv-x="1161" d="M532 1376q123 0 217.5 -100t147.5 -264l16 -51h82v512h-59l-33 -60q-53 25 -129 46.5t-180 21.5q-111 0 -199 -32t-150.5 -86t-95 -125t-32.5 -148q0 -141 56 -233.5t141 -156t184.5 -107.5t184.5 -87t141.5 -96.5t56.5 -135.5q0 -78 -50.5 -125t-166.5 -47 q-66 0 -125.5 26t-112.5 71t-100 108.5t-84 138.5l-49 101h-62v-565h62l61 75q31 -12 65.5 -26.5t79.5 -27.5t99.5 -21.5t124.5 -8.5q92 0 173 29t141 81t96 127t36 169q0 141 -55.5 233.5t-137 154.5t-179 104t-179.5 85t-137 97.5t-55 140.5q0 29 10 60.5t34.5 59t64.5 45 t97 17.5z" />
<glyph unicode="T" horiz-adv-x="1382" d="M1331 1481h-61l-74 -27h-1012l-71 27h-62v-477h58l229 350h207v-1188l-84 -88h-176v-78h813v78h-178l-82 88v1188h206l230 -353h57v480z" />
<glyph unicode="U" horiz-adv-x="1581" d="M1556 1376v78h-567v-78h152l96 -127v-651q0 -236 -91 -366t-284 -130q-102 0 -165.5 32t-100.5 91.5t-50.5 147.5t-13.5 202v715l82 86h142v78h-731v-78h120l84 -86v-741q0 -156 41 -265.5t120 -178t193.5 -100.5t260.5 -32q143 0 240.5 50.5t156.5 136.5t85 199.5 t26 240.5v649l84 127h120z" />
<glyph unicode="V" horiz-adv-x="1368" d="M799 387h-4l-381 903l67 86h162v78h-635v-57l68 -84l573 -1333h86l527 1294l88 123v57h-478v-78h144l98 -174z" />
<glyph unicode="W" horiz-adv-x="1974" d="M1442 387h-4l-283 836l68 174v57h-465v-57l172 -461l-191 -549h-4l-305 903l68 86h161v78h-634v-57l61 -80l504 -1337h86l311 806l305 -806h86l504 1304l76 113v57h-475v-78h119l98 -227z" />
<glyph unicode="X" horiz-adv-x="1372" d="M827 827l342 459l123 111v57h-487v-78h94l86 -129l-227 -321l-244 358v92h117v78h-602v-57l94 -90l409 -602l-399 -537l-119 -111v-57h525v78h-103l-104 135l272 387l293 -428v-94h-109v-78h598v57l-112 119z" />
<glyph unicode="Y" horiz-adv-x="1347" d="M1315 1397v57h-473v-78h86l114 -153l-251 -435h-5l-317 502l76 86h100v78h-625v-57l84 -86l441 -688v-459l-101 -86h-98v-78h688v78h-100l-96 86v510l389 637z" />
<glyph unicode="Z" horiz-adv-x="1196" d="M285 1454l-72 27h-61v-498h57l223 369h338v-4l-713 -1291v-57h1033v471h-58l-227 -369h-391v4l692 1291v57h-821z" />
<glyph unicode="[" horiz-adv-x="628" d="M584 -78v78h-271v1454h271v78h-400v-1610h400z" />
<glyph unicode="\" horiz-adv-x="917" d="M166 1454h-119l701 -1454h118z" />
<glyph unicode="]" horiz-adv-x="628" d="M444 -78v1610h-399v-78h270v-1454h-270v-78h399z" />
<glyph unicode="^" horiz-adv-x="972" d="M78 621h143l262 688l271 -688h141l-348 860h-123z" />
<glyph unicode="_" horiz-adv-x="1257" d="M1133 -289v115h-1008v-115h1008z" />
<glyph unicode="`" horiz-adv-x="450" d="M496 1155v57l-541 269v-213z" />
<glyph unicode="a" horiz-adv-x="1048" d="M510 930q45 0 75.5 -29t30.5 -117v-176l-106 -12q-96 -12 -178 -41t-141.5 -74t-93.5 -107.5t-34 -140.5t25 -129t62.5 -79.5t85 -40t90.5 -11.5q86 0 153.5 37t141.5 123h4l-23 -153l404 20v57h-54l-59 66v614q0 59 -18.5 112.5t-61.5 93.5t-116.5 63.5t-184.5 23.5 q-55 0 -122.5 -16.5t-128 -49t-100.5 -84t-40 -120.5q0 -59 12 -80h262v115q0 61 35 98t80 37zM616 236q-45 -51 -89 -74t-87 -23t-67.5 40t-24.5 95q0 80 59.5 141.5t163.5 84.5l45 8v-272z" />
<glyph unicode="b" horiz-adv-x="1153" d="M401 911v564l-391 -21v-57h60l59 -66v-1239q39 -23 80 -44t94 -37.5t121 -27t158 -10.5q121 0 214 44t156.5 121t96 180.5t32.5 220.5q0 102 -27.5 192t-79.5 156.5t-128 104.5t-174 38q-84 0 -145.5 -36t-120.5 -83h-5zM406 799q41 33 80.5 49t91.5 16 q104 0 160.5 -109.5t56.5 -301.5q0 -193 -54.5 -283t-144.5 -90q-66 0 -111 35t-79 102v582z" />
<glyph unicode="c" horiz-adv-x="987" d="M528 922q41 0 69 -29t28 -105v-83h266q8 18 14 45.5t6 54.5q0 55 -32.5 98t-81.5 72t-106.5 42t-108.5 13q-127 0 -222.5 -45t-160 -119.5t-97 -174t-32.5 -208.5q0 -98 30.5 -190t89 -163t142.5 -114t192 -43q160 0 260.5 96.5t153.5 270.5l-47 20q-41 -61 -110.5 -104 t-162.5 -43q-47 0 -98 19.5t-93 63.5t-68.5 113.5t-26.5 170.5q0 98 18.5 163.5t48 105.5t64 56.5t65.5 16.5z" />
<glyph unicode="d" horiz-adv-x="1204" d="M748 225q-43 -41 -82 -63.5t-91 -22.5q-104 0 -160.5 109.5t-56.5 302.5t54.5 283t144.5 90q66 0 111 -35t80 -103v-561zM748 1311v-318q-39 16 -86.5 26.5t-90.5 10.5q-121 0 -214 -44t-156.5 -121t-96 -180t-32.5 -220q0 -102 27.5 -192.5t79.5 -157t128 -104.5 t174 -38q84 0 159 48.5t126 111.5h4l-22 -153l428 20v78h-93l-59 65v1332l-440 -21v-78h104z" />
<glyph unicode="e" horiz-adv-x="993" d="M330 696q20 127 75.5 176.5t112.5 49.5q55 0 94 -34t39 -116v-76h-321zM903 621v96q0 61 -25.5 117.5t-73.5 100.5t-118 69.5t-160 25.5q-100 0 -184 -45t-144.5 -119.5t-94 -174t-33.5 -208.5q0 -98 28.5 -190t86 -163t142.5 -114t197 -43q160 0 265.5 98.5t158.5 272.5 l-47 21q-47 -76 -115.5 -114t-171.5 -38q-55 0 -107 19.5t-94 63.5t-66.5 113.5t-24.5 170.5v16h557z" />
<glyph unicode="f" horiz-adv-x="716" d="M459 1247q0 133 78 133q41 0 65.5 -33.5t24.5 -99.5v-51h221q4 10 10 30.5t6 49.5t-16.5 64.5t-51 66.5t-92 52.5t-139.5 21.5q-88 0 -159.5 -27t-122 -83t-78 -144t-27.5 -211v-12h-119v-68l123 -31v-762l-57 -65h-66v-78h543v78h-82l-61 65v772h239v89h-239v243z" />
<glyph unicode="g" horiz-adv-x="1050" d="M825 -86q0 -94 -76.5 -152.5t-218.5 -58.5q-131 0 -183 41t-52 133v45h530v-8zM645 586q0 -92 -25.5 -129t-84.5 -37q-72 0 -125.5 75.5t-53.5 227.5q0 86 27 142.5t86 56.5q37 0 68.5 -24t55 -67t38 -105t14.5 -140zM1030 948v56h-332q-23 6 -78 16t-114 10 q-84 0 -159 -27.5t-131 -76.5t-89 -118t-33 -151q0 -49 15.5 -94t41 -82t56.5 -65.5t61 -48.5l-108 -119q-33 -35 -49.5 -75t-16.5 -79q0 -37 13.5 -65.5t34 -50t45 -36t49.5 -20.5q-84 -68 -123 -108.5t-39 -92.5q0 -74 82 -110.5t231 -36.5q90 0 192.5 21.5t189.5 67.5 t144.5 119t57.5 175q0 121 -54.5 187.5t-152.5 68.5q-14 0 -44 -3t-63 -9l-338 -58v197q14 -8 41 -13t54.5 -8.5t50 -4.5t29.5 -1q80 0 152.5 23.5t128.5 68t90 107.5t34 141q0 53 -13.5 113.5t-39.5 95.5z" />
<glyph unicode="h" horiz-adv-x="1234" d="M451 1475l-410 -21v-78h74l59 -65v-1168l-59 -65h-74v-78h534v78h-67l-57 65v605q49 51 100 81.5t96 30.5q66 0 102.5 -44t36.5 -134v-539l-57 -65h-70v-78h537v78h-72l-61 65v568q0 143 -79 231t-230 88q-86 0 -161 -46t-138 -124h-4v615z" />
<glyph unicode="i" horiz-adv-x="647" d="M489 1300q0 66 -44 110t-107 44q-66 0 -110 -44t-44 -110q0 -63 44 -107t110 -44q63 0 107 44t44 107zM467 1024l-416 -20v-78h80l59 -66v-717l-57 -65h-80v-78h565v78h-90l-61 65v881z" />
<glyph unicode="j" horiz-adv-x="606" d="M477 1300q0 66 -44 110t-107 44q-66 0 -110 -44t-44 -110q0 -63 44 -107t110 -44q63 0 107 44t44 107zM184 860v-1075h-258v-72q31 -49 88.5 -94t147.5 -45q63 0 118.5 33t95.5 90t62.5 135t22.5 168v1024l-430 -20v-78h94z" />
<glyph unicode="k" horiz-adv-x="1118" d="M442 506h4l297 -389v-39h-102v-78h479v57l-456 607l356 294v46h-406v-256l-168 -154h-4v881l-395 -21v-78h64l59 -65v-1168l-59 -65h-64v-78h510v78h-53l-62 65v363z" />
<glyph unicode="l" horiz-adv-x="634" d="M453 1475l-414 -21v-78h78l59 -65v-1168l-57 -65h-80v-78h565v78h-90l-61 65v1332z" />
<glyph unicode="m" horiz-adv-x="1818" d="M465 1024l-410 -20v-78h74l59 -66v-717l-59 -65h-74v-78h525v78h-58l-57 65v605q49 51 102.5 81.5t106.5 30.5q104 0 104 -162v-555l-57 -65h-57v-78h505v78h-53l-61 65v605q49 51 98 81.5t107 30.5q57 0 82.5 -48t25.5 -130v-539l-57 -65h-58v-78h525v78h-72l-61 65v568 q0 143 -71 231t-224 88q-76 0 -161 -43t-147 -139q-90 182 -284 182q-37 0 -81 -12t-85 -34.5t-78 -57.5t-61 -78h-4z" />
<glyph unicode="n" horiz-adv-x="1249" d="M465 1024l-410 -20v-78h74l59 -66v-717l-59 -65h-74v-78h535v78h-68l-57 65v605q49 51 97 81.5t97 30.5q25 0 50.5 -6t45 -25.5t33 -54.5t13.5 -92v-539l-58 -65h-69v-78h536v78h-71l-62 65v568q0 143 -78.5 231t-232.5 88q-96 0 -176 -49t-137 -135h-4z" />
<glyph unicode="o" horiz-adv-x="1138" d="M770 430q0 -72 -6 -134.5t-24.5 -110.5t-52.5 -75.5t-87 -27.5q-59 0 -103 48t-73 122t-43 161t-14 165q0 72 9 135t29.5 109t53.5 73t82 27q61 0 105 -48.5t71.5 -122t40 -159.5t12.5 -162zM1069 508q0 117 -37 213t-103.5 164.5t-158.5 106.5t-203 38q-109 0 -200 -39 t-157.5 -108.5t-103 -164.5t-36.5 -208q0 -117 35.5 -215t102 -170t159 -112t206.5 -40q106 0 197.5 41t157 113t103.5 169t38 212z" />
<glyph unicode="p" horiz-adv-x="1193" d="M446 778q43 41 82 63.5t90 22.5q104 0 161 -109.5t57 -301.5q0 -193 -54.5 -283t-144.5 -90q-66 0 -111 35t-80 102v561zM446 10q39 -16 86.5 -26.5t90.5 -10.5q121 0 214 44t156.5 121t96 180.5t32.5 220.5q0 102 -27.5 192t-79.5 156.5t-128 104.5t-174 38 q-84 0 -159 -48t-126 -112h-4l22 154l-399 -20v-78h64l59 -66v-1116l-57 -66h-66v-77h563v77h-102l-62 66v266z" />
<glyph unicode="q" horiz-adv-x="1169" d="M1024 -256v1280l-168 -33q-53 16 -122.5 27.5t-162.5 11.5q-121 0 -214 -44t-156.5 -121t-96 -180t-32.5 -220q0 -102 27.5 -192.5t79.5 -157t128 -104.5t174 -38q84 0 145.5 37t121.5 103h4v-369l-66 -66h-106v-77h583v77h-82zM748 205q-41 -33 -81 -49.5t-92 -16.5 q-104 0 -160.5 109.5t-56.5 302.5t54.5 283t144.5 90q66 0 111 -35t80 -103v-581z" />
<glyph unicode="r" horiz-adv-x="843" d="M455 702h346v302q-10 12 -42 19t-52 7q-53 0 -99.5 -22.5t-84.5 -61.5t-70.5 -88t-57.5 -102h-8l21 268l-347 -20v-78h64l59 -66v-717l-59 -65h-64v-78h572v78h-121l-57 65v559z" />
<glyph unicode="s" horiz-adv-x="890" d="M399 932q86 0 148.5 -60.5t111.5 -166.5l25 -54h61v353h-96q-27 6 -59 12q-29 4 -68 9t-86 5q-68 0 -129 -17.5t-108 -52t-75 -86t-28 -116.5q0 -96 39 -162t96.5 -112t126 -80.5t126 -67.5t96 -71t38.5 -93q0 -37 -21.5 -64.5t-80.5 -27.5q-100 0 -171 61.5t-140 177.5 l-41 70h-62v-389h95q45 -8 96 -14q43 -4 94 -8.5t102 -4.5q57 0 117 18.5t107 55.5t76.5 92.5t29.5 128.5q0 96 -39 162t-96 112t-124.5 79.5t-125 63.5t-96.5 63.5t-39 82.5q0 45 26.5 73t73.5 28z" />
<glyph unicode="t" horiz-adv-x="681" d="M664 915v89h-234v270h-78l-295 -270v-68l97 -31v-684q0 -117 57 -182.5t168 -65.5q86 0 159.5 40t125.5 120v23h-234v759h234z" />
<glyph unicode="u" horiz-adv-x="1218" d="M1040 1024l-399 -20v-78h64l59 -66v-604q-49 -51 -89 -82t-102 -31q-61 0 -97 44t-36 135v702l-395 -20v-78h59l60 -66v-567q0 -143 77.5 -231.5t221.5 -88.5q82 0 162 47.5t151 147.5h4l-16 -188l424 20v78h-88l-60 65v881z" />
<glyph unicode="v" horiz-adv-x="1097" d="M1061 1004h-369v-78h78l82 -109l-201 -504h-8l-221 527l57 86h80v78h-518v-58l59 -67l383 -899h125l396 905l57 61v58z" />
<glyph unicode="w" horiz-adv-x="1617" d="M1366 817l-182 -483h-8l-199 491l55 101v78h-409v-58l133 -303l-131 -307h-9l-219 545l58 45h55v78h-477v-58l59 -67l383 -899h125l211 530l223 -530h125l357 905l57 61v58h-369v-78h78z" />
<glyph unicode="x" horiz-adv-x="1075" d="M653 567l279 314l90 65v58h-406v-78h60l78 -105l-150 -186l-166 225v66h76v78h-481v-58l90 -74l291 -401l-291 -348l-92 -68v-55h405v78h-69l-76 106l172 219l194 -266v-59h-88v-78h494v57l-84 68z" />
<glyph unicode="y" horiz-adv-x="1144" d="M883 774l-221 -612h-5l-247 698l55 66h113v78h-539v-58l57 -69l416 -1059h-377v-103q33 -49 90.5 -95t143.5 -46q96 0 167.5 71.5t112.5 182.5l393 1057l58 61v58h-381v-78h102z" />
<glyph unicode="z" horiz-adv-x="966" d="M883 0v369h-58l-178 -291h-278v4l508 856v66h-764v-355h57l170 277h225v-4l-508 -856v-66h826z" />
<glyph unicode="{" horiz-adv-x="675" d="M172 537q16 4 48 19t62.5 46t53 82t22.5 129v342q0 47 5.5 102.5t22.5 103.5t51 80t91 32q25 0 52.5 -5.5t56.5 -13.5l22 68q-31 14 -74.5 21t-90.5 7t-95.5 -17t-89.5 -59t-66.5 -112t-25.5 -174v-342q0 -123 -38 -174t-124 -56v-174q86 -4 124 -56t38 -175v-346 q0 -102 25.5 -172t66.5 -112t89 -60.5t96 -18.5q47 0 91 7.5t74 21.5l-22 70q-29 -10 -55.5 -15.5t-53.5 -5.5q-57 0 -91 32t-51 80t-22.5 104.5t-5.5 103.5v344q0 78 -22.5 130t-53 83.5t-62.5 48t-48 20.5v11z" />
<glyph unicode="|" horiz-adv-x="505" d="M317 0v1454h-129v-1454h129z" />
<glyph unicode="}" horiz-adv-x="675" d="M504 526q-16 -4 -48 -20.5t-63 -48t-53.5 -83.5t-22.5 -130v-344q0 -47 -5 -103.5t-22.5 -104.5t-51 -80t-91.5 -32q-27 0 -53 5t-55 16l-23 -70q31 -14 75 -21.5t91 -7.5q45 0 94.5 18.5t90.5 60.5t66.5 111.5t25.5 172.5v346q0 123 38 175t124 56v174q-86 4 -124 55.5 t-38 174.5v342q0 104 -25.5 174t-66.5 112t-90.5 59t-94.5 17q-47 0 -91 -7t-75 -21l23 -68q29 8 56.5 13.5t51.5 5.5q57 0 91 -32t51.5 -80t22.5 -103.5t5 -102.5v-342q0 -78 22.5 -129t53.5 -82t62.5 -46t48.5 -19v-11z" />
<glyph unicode="~" horiz-adv-x="1290" d="M850 600q-55 0 -107.5 13.5t-104.5 28.5t-104.5 28.5t-105.5 13.5q-72 0 -147.5 -25.5t-147.5 -66.5l55 -96q70 37 129.5 54t122.5 17q53 0 105.5 -13t103.5 -29.5t102.5 -30t104.5 -13.5q160 0 303 94l-57 99q-70 -41 -127 -57.5t-125 -16.5z" />
<glyph unicode="&#xa1;" horiz-adv-x="602" d="M162 1315q0 -59 40 -99t99 -40t99 39.5t40 99.5q0 59 -40 99t-99 40t-99 -40t-40 -99zM162 422v-449h276v449l-100 600h-76z" />
<glyph unicode="&#xa2;" horiz-adv-x="1021" d="M332 580q0 139 40 214.5t91 104.5v-629q-55 41 -93 117t-38 193zM592 -102v79q135 16 223 110.5t135 252.5l-47 20q-41 -61 -110.5 -104t-161.5 -43q-12 0 -25.5 1t-25.5 3v698q31 -10 54 -39.5t23 -87.5v-83h246q8 18 14.5 45.5t6.5 54.5q0 55 -33 98t-82 72t-106.5 42 t-108.5 13h-2v76h-129v-90q-94 -23 -166 -74t-119 -121.5t-71.5 -158t-24.5 -179.5q0 -90 25.5 -175t74.5 -152.5t120 -114.5t161 -61v-82h129z" />
<glyph unicode="&#xa3;" horiz-adv-x="1267" d="M688 1358q31 0 60.5 -10.5t53 -35t37 -66.5t13.5 -105v-41h268q8 14 12.5 36.5t4.5 34.5q0 82 -34 141.5t-89.5 96.5t-127 54.5t-147.5 17.5q-98 0 -182 -32t-145.5 -89t-96 -137t-34.5 -179v-241h-175v-115h175q0 -160 -13.5 -265.5t-37 -171t-57.5 -100t-73 -55.5v-96 h197q49 37 114.5 58.5t149.5 21.5q47 0 88 -16.5t80 -37t79 -37t87 -16.5q35 0 76 19.5t82 53.5t77.5 80t63.5 99l-49 45q-45 -35 -84 -56t-88 -21q-35 0 -76 22.5t-87 48t-96 48t-102 22.5q-49 0 -97 -23.5t-101 -87.5l-13 13q51 55 82 84.5t46.5 68.5t19.5 104.5t4 194.5 h375v115h-377v276q0 127 28.5 203t108.5 76z" />
<glyph unicode="&#xa4;" horiz-adv-x="1083" d="M178 246l129 129q53 -41 107.5 -58.5t126.5 -17.5t127 17.5t106 58.5l127 -127l76 69l-129 129q41 53 58.5 107.5t17.5 126.5t-17.5 127t-58.5 106l127 127l-70 76l-129 -129q-53 41 -107.5 58.5t-125.5 17.5q-72 0 -127.5 -17.5t-106.5 -58.5l-127 127l-76 -70l130 -129 q-41 -53 -58.5 -107t-17.5 -126t17.5 -127t58.5 -106l-127 -127zM307 680q0 49 18.5 93t49.5 76t74 51.5t92 19.5t92 -19.5t73.5 -51.5t49 -76t18.5 -93t-18.5 -93t-49 -77t-73.5 -52.5t-92 -19.5t-92 19.5t-74 52.5t-49.5 77t-18.5 93z" />
<glyph unicode="&#xa5;" horiz-adv-x="1429" d="M1356 1397v57h-473v-78h86l114 -153l-252 -435h-4l-317 502l76 86h100v78h-625v-57l84 -86l318 -498h-184v-115h258l49 -75v-95h-307v-114h307v-250l-101 -86h-98v-78h688v78h-100l-96 86v250h346v114h-346v146l14 24h332v115h-262l305 498z" />
<glyph unicode="&#xa6;" horiz-adv-x="505" d="M317 860v594h-129v-594h129zM317 0v594h-129v-594h129z" />
<glyph unicode="&#xa7;" horiz-adv-x="1216" d="M928 397q0 -45 -15 -75q-55 37 -118.5 60.5t-127 41.5t-123 37.5t-104.5 46.5t-72.5 65.5t-27.5 98.5q0 31 12 65q57 -35 122 -58.5t128.5 -43t122.5 -37.5t104 -45t72 -64t27 -92zM164 1090q0 -86 21.5 -149.5t60.5 -111.5q-115 -111 -115 -262q0 -104 33 -177t87 -122 t122.5 -80.5t139.5 -55t139.5 -43t122.5 -47.5t87 -66.5t33 -100.5q0 -78 -50 -125t-167 -47q-66 0 -125 25.5t-112.5 70.5t-100.5 108.5t-84 139.5l-49 100h-62v-565h62l61 76q31 -12 66 -26.5t80 -28t99 -21.5t124 -8q92 0 173 28.5t141.5 81t96 127t35.5 169.5 q0 82 -19.5 142t-51.5 107q49 51 76.5 120t27.5 153q0 106 -31.5 179t-84 121t-119 78.5t-137 52t-137 41t-119 47.5t-84 68.5t-31.5 104.5q0 29 10 60.5t34.5 59t64.5 45t98 17.5q123 0 217 -100t147 -264l17 -51h81v512h-59l-33 -60q-53 25 -129 46.5t-180 21.5 q-111 0 -199 -32t-150.5 -86t-95 -124.5t-32.5 -148.5z" />
<glyph unicode="&#xa8;" horiz-adv-x="450" d="M575 1315q0 59 -39.5 99t-99.5 40q-59 0 -99 -40t-40 -99t40 -99t99 -40t99 40t40 99zM152 1315q0 59 -40 99t-100 40q-59 0 -99 -40t-40 -99t40 -99t99 -40t99.5 40t40.5 99z" />
<glyph unicode="&#xa9;" horiz-adv-x="1687" d="M176 727q0 137 52.5 260t143.5 215t212 146.5t260 54.5q137 0 259 -54.5t213 -146.5t143 -215t52 -260q0 -139 -52 -262t-143 -215t-213 -145.5t-259 -53.5q-139 0 -260 53.5t-212 145.5t-143.5 215t-52.5 262zM877 1073q55 0 94 -31.5t76 -115.5l22 -52h82v275h-43 q-41 0 -67.5 2t-50 4t-50.5 4t-66 2q-102 0 -184 -32.5t-139 -91t-88 -139.5t-31 -179t35 -177t92 -133.5t132 -84t155 -29.5q82 0 143.5 31.5t105.5 79t73.5 104.5t50.5 111l-58 34q-16 -23 -36.5 -47t-48 -43.5t-65.5 -32t-89 -12.5q-49 0 -95.5 18.5t-83 53.5t-58 88 t-21.5 123q0 139 62.5 204.5t150.5 65.5zM90 727q0 -156 59.5 -293t162 -239.5t239.5 -162t293 -59.5t293 59.5t239.5 162t161.5 239.5t59 293t-59 293t-161.5 239.5t-240 162t-292.5 59.5q-156 0 -293 -59.5t-239.5 -162t-162 -239.5t-59.5 -293z" />
<glyph unicode="&#xaa;" horiz-adv-x="1046" d="M588 877q-41 -53 -81 -81t-87 -28q-55 0 -55 76t47 116.5t129 75.5l47 21v-180zM489 1391q63 0 81 -35t18 -99v-114l-115 -27q-66 -12 -134.5 -33.5t-123.5 -55.5t-90 -82t-35 -111t18.5 -105.5t48 -68t65.5 -36t73 -10.5q92 0 157.5 47.5t139.5 133.5h4l-23 -174l398 20 v57h-64l-59 66v477q0 45 -17.5 89t-57.5 77t-105.5 53.5t-159.5 20.5q-55 0 -119.5 -12.5t-121 -40t-93.5 -72.5t-37 -113q0 -31 8.5 -50t14.5 -30l227 2v82q0 61 22.5 102.5t79.5 41.5z" />
<glyph unicode="&#xab;" horiz-adv-x="1034" d="M879 72h51l-182 426l182 424h-51l-379 -394v-57zM469 72h51l-182 426l182 424h-51l-379 -394v-57z" />
<glyph unicode="&#xac;" horiz-adv-x="825" d="M588 381h102v266h-553v-102h451v-164z" />
<glyph unicode="&#xad;" horiz-adv-x="684" d="M567 535v102h-450v-102h450z" />
<glyph unicode="&#xae;" horiz-adv-x="1687" d="M778 674h4q16 0 41 -10.5t39 -47.5l125 -301h291v45l-160 312l-172 41v4q51 6 102.5 20.5t92.5 40t66.5 64.5t25.5 92q0 111 -82 159t-272 48h-469v-78h55l57 -66v-538l-57 -66h-55v-78h467v78h-62l-37 66v215zM778 764v287h27q66 0 112 -30t46 -103q0 -74 -44.5 -114 t-111.5 -40h-29zM176 727q0 137 52.5 260t143.5 215t212 146.5t260 54.5q137 0 259 -54.5t213 -146.5t143 -215t52 -260q0 -139 -52 -262t-143 -215t-213 -145.5t-259 -53.5q-139 0 -260 53.5t-212 145.5t-143.5 215t-52.5 262zM90 727q0 -156 59.5 -293t162 -239.5 t239.5 -162t293 -59.5t293 59.5t239.5 162t161.5 239.5t59 293t-59 293t-161.5 239.5t-240 162t-292.5 59.5q-156 0 -293 -59.5t-239.5 -162t-162 -239.5t-59.5 -293z" />
<glyph unicode="&#xaf;" horiz-adv-x="450" d="M451 1352v102h-451v-102h451z" />
<glyph unicode="&#xb0;" horiz-adv-x="679" d="M211 1200q0 55 37 94t92 39t92 -39t37 -94t-37 -94t-92 -39t-92 39t-37 94zM86 1200q0 -53 20.5 -99t54.5 -80t80 -54.5t99 -20.5q51 0 98 20.5t81 54.5t54.5 80t20.5 99q0 51 -20.5 98.5t-54.5 81t-81 54t-98 20.5q-53 0 -99 -20.5t-80 -54t-54.5 -81t-20.5 -98.5z" />
<glyph unicode="&#xb1;" horiz-adv-x="1110" d="M985 659v115h-371v375h-118v-375h-371v-115h371v-391h118v391h371zM985 0v115h-860v-115h860z" />
<glyph unicode="&#xb2;" horiz-adv-x="913" d="M461 1399q35 0 61.5 -26.5t26.5 -86.5q0 -66 -37 -131t-98.5 -131t-139 -132.5t-157.5 -133.5v-103h637l61 332h-45l-84 -113h-291v5q86 43 157 87t122 91t78.5 98t27.5 113q0 63 -26.5 104t-70.5 65.5t-99.5 34t-112.5 9.5q-72 0 -134.5 -18.5t-108.5 -52.5t-73.5 -79 t-27.5 -96q0 -23 5 -39t9 -25h244v115q0 59 20.5 86t55.5 27z" />
<glyph unicode="&#xb3;" horiz-adv-x="833" d="M729 1329v125h-471l-72 27h-20l-45 -234h338v-4l-197 -153v-41h105q55 0 92 -27t37 -94q0 -68 -45 -105t-107 -37q-47 0 -109.5 28t-109.5 77l-51 -19q57 -135 133 -196.5t186 -61.5q160 0 246 75t86 192q0 119 -66.5 184t-177.5 65h-24z" />
<glyph unicode="&#xb4;" horiz-adv-x="450" d="M496 1268v213l-541 -269v-57z" />
<glyph unicode="&#xb5;" horiz-adv-x="1312" d="M1087 1024l-399 -20v-58h64l59 -65v-625q-49 -51 -89 -82t-101 -31t-97.5 44t-36.5 135v702l-395 -20v-58h60l59 -65v-1280h276v374q4 0 10.5 -1t12.5 -1q82 0 162 47.5t151 147.5h4l-16 -188l424 20v57h-88l-60 66v901z" />
<glyph unicode="&#xb6;" horiz-adv-x="1230" d="M465 1454q-84 0 -156.5 -31.5t-126 -87t-85 -129t-31.5 -155.5q0 -84 31.5 -157t85 -127t126 -86t156.5 -32h20v-649h129v1376h191v-1376h129v1376h229v78h-698z" />
<glyph unicode="&#xb7;" horiz-adv-x="544" d="M436 717q0 68 -48 116t-116 48t-115.5 -48.5t-47.5 -115.5q0 -68 48 -116t115 -48q68 0 116 48t48 116z" />
<glyph unicode="&#xb8;" horiz-adv-x="450" d="M496 -254q0 76 -57.5 108.5t-143.5 32.5h-29l45 138h-104l-86 -207l14 -13h64q41 0 65.5 -15t24.5 -50t-23.5 -47t-52.5 -12q-33 0 -68.5 10t-64.5 22l-49 -104q43 -14 91 -24.5t101 -10.5q117 0 195 41t78 131z" />
<glyph unicode="&#xb9;" horiz-adv-x="831" d="M123 1239v-92l184 88v-416l-82 -86h-110v-78h643v78h-109l-82 86v656h-45z" />
<glyph unicode="&#xba;" horiz-adv-x="995" d="M655 999q0 -55 -6 -107t-20.5 -92t-41 -63.5t-65.5 -23.5q-49 0 -85 37.5t-57.5 95t-31.5 125t-10 129.5q0 57 6 109.5t22.5 91t42 61t66.5 22.5q49 0 83 -37.5t55.5 -94t31.5 -124.5t10 -129zM918 1053q0 96 -32 175t-88.5 135t-134 87t-167.5 31q-88 0 -165 -33 t-133.5 -89t-88 -134t-31.5 -170q0 -96 30.5 -176t87 -139.5t134.5 -92.5t172 -33q88 0 163.5 34t132 92.5t88.5 139.5t32 173z" />
<glyph unicode="&#xbb;" horiz-adv-x="1034" d="M535 471v57l-379 394h-52l183 -424l-183 -426h52zM944 471v57l-379 394h-51l182 -424l-182 -426h51z" />
<glyph unicode="&#xbc;" horiz-adv-x="1810" d="M1364 799q-27 -92 -57.5 -167t-65.5 -142.5t-77 -133t-93 -141.5v-59h258v-156h260v156h144v86h-144v237h-37l-223 -237h-137v4l514 553h-342zM1630 1454h-149l-1121 -1454h158zM94 1239v-92l185 88v-416l-82 -86h-111v-78h643v78h-108l-82 86v656h-45z" />
<glyph unicode="&#xbd;" horiz-adv-x="1927" d="M1634 1454h-149l-1120 -1454h157zM98 1239v-92l185 88v-416l-82 -86h-111v-78h643v78h-108l-82 86v656h-45zM1503 743q35 0 61.5 -26.5t26.5 -85.5q0 -66 -36.5 -131.5t-98 -131t-139.5 -132t-158 -134.5v-102h637l62 332h-46l-83 -113h-291v4q86 43 156.5 87t121.5 91.5 t79 98.5t28 112q0 63 -27 104.5t-71 66t-99 33.5t-113 9q-72 0 -134 -18.5t-108 -52t-74 -78.5t-28 -96q0 -23 5.5 -39.5t9.5 -24.5h243v115q0 59 20.5 85.5t55.5 26.5z" />
<glyph unicode="&#xbe;" horiz-adv-x="1857" d="M1403 799q-27 -92 -57.5 -167t-65.5 -142.5t-77 -133t-93 -141.5v-59h258v-156h260v156h144v86h-144v237h-37l-223 -237h-137v4l514 553h-342zM1669 1454h-149l-1121 -1454h158zM723 1329v125h-471l-72 27h-20l-45 -234h338v-4l-197 -153v-41h104q55 0 92 -27t37 -94 q0 -68 -45 -105t-106 -37q-47 0 -109.5 28t-109.5 77l-51 -19q57 -135 132.5 -196.5t186.5 -61.5q160 0 246 75t86 192q0 119 -66.5 184t-177.5 65h-24z" />
<glyph unicode="&#xbf;" horiz-adv-x="933" d="M66 258q0 -147 105 -216t296 -69q55 0 122.5 16.5t128 49.5t100.5 84t40 121q0 57 -12 80h-254v-117q0 -55 -27.5 -100.5t-95.5 -45.5t-95.5 44.5t-27.5 101.5q0 61 19.5 117.5t49 108.5t64.5 104.5t64.5 108.5t49 117.5t19.5 131.5q0 61 -12 102t-16 52h-70v-19 q0 -106 -32.5 -182t-83 -133.5t-109 -104.5t-108.5 -98t-82.5 -110.5t-32.5 -143.5zM397 1341q0 -59 40 -99t100 -40q59 0 99 40t40 99t-40 99.5t-99 40.5t-99.5 -40.5t-40.5 -99.5z" />
<glyph unicode="&#xc0;" horiz-adv-x="1462" d="M1008 1565v57l-541 268v-213zM635 1247l231 -672h-467zM139 205l-114 -148v-57h483v78h-174l-60 141l88 254h541l107 -309l-62 -86h-141v-78h645v57l-111 107l-507 1372h-21l-235 -119z" />
<glyph unicode="&#xc1;" horiz-adv-x="1462" d="M1008 1677v213l-541 -268v-57zM635 1247l231 -672h-467zM139 205l-114 -148v-57h483v78h-174l-60 141l88 254h541l107 -309l-62 -86h-141v-78h645v57l-111 107l-507 1372h-21l-235 -119z" />
<glyph unicode="&#xc2;" horiz-adv-x="1462" d="M1065 1565v57l-328 268l-327 -268v-57l327 112zM635 1247l231 -672h-467zM139 205l-114 -148v-57h483v78h-174l-60 141l88 254h541l107 -309l-62 -86h-141v-78h645v57l-111 107l-507 1372h-21l-235 -119z" />
<glyph unicode="&#xc3;" horiz-adv-x="1462" d="M846 1669q70 0 131 46t104 112l-59 57q-25 -23 -69 -48.5t-89 -25.5q-27 0 -52.5 12.5t-53 28t-59 27.5t-70.5 12q-70 0 -130.5 -48t-105.5 -113l60 -54q25 23 68.5 48.5t88.5 25.5q35 0 62.5 -12.5t53.5 -27.5t54.5 -27.5t65.5 -12.5zM635 1247l231 -672h-467zM139 205 l-114 -148v-57h483v78h-174l-60 141l88 254h541l107 -309l-62 -86h-141v-78h645v57l-111 107l-507 1372h-21l-235 -119z" />
<glyph unicode="&#xc4;" horiz-adv-x="1462" d="M1090 1724q0 59 -40 99.5t-100 40.5q-59 0 -99 -40t-40 -100q0 -59 40 -99t99 -40t99.5 40t40.5 99zM666 1724q0 59 -40 99.5t-100 40.5q-59 0 -99 -40t-40 -100q0 -59 40 -99t99 -40t99.5 40t40.5 99zM635 1247l231 -672h-467zM139 205l-114 -148v-57h483v78h-174 l-60 141l88 254h541l107 -309l-62 -86h-141v-78h645v57l-111 107l-507 1372h-21l-235 -119z" />
<glyph unicode="&#xc5;" horiz-adv-x="1462" d="M823 1722q0 -35 -24.5 -58.5t-61.5 -23.5q-35 0 -58.5 24t-23.5 58q0 37 23.5 61.5t58.5 24.5q37 0 61.5 -24.5t24.5 -61.5zM905 1722q0 72 -48 120t-120 48q-70 0 -118 -48t-48 -120q0 -70 48.5 -118t117.5 -48q72 0 120 48t48 118zM635 1247l231 -672h-467zM139 205 l-114 -148v-57h483v78h-174l-60 141l88 254h541l107 -309l-62 -86h-141v-78h645v57l-111 107l-507 1372h-21l-235 -119z" />
<glyph unicode="&#xc6;" horiz-adv-x="2031" d="M494 575l446 613v-613h-446zM1616 1352l229 -328h37v430h-1147v-78h125l49 -53l-925 -1266v-57h462v78h-149l-72 127l195 268h520v-309l-80 -86h-125v-78h1143l92 451h-37l-321 -349h-379v609h160l188 -308h37v717h-37l-188 -307h-160v539h383z" />
<glyph unicode="&#xc7;" horiz-adv-x="1443" d="M956 -254q0 76 -57 108.5t-143 32.5h-29l29 88q4 0 9 -1t11 -1q127 -4 228.5 42t178.5 115t127 149.5t76 146.5l-77 29q-92 -129 -202 -186.5t-241 -57.5q-115 0 -208 47t-158.5 129t-102.5 192.5t-37 235.5q0 127 32 230.5t87.5 176t129 112.5t157.5 40q154 0 261.5 -95 t180.5 -261l31 -70h82v525h-61l-52 -76q-66 31 -165 57.5t-246 26.5q-162 0 -294 -59.5t-225.5 -162t-143.5 -239.5t-50 -295q0 -139 39 -264t111.5 -223.5t177 -165t237.5 -88.5l-67 -166l14 -13h63q41 0 66 -15t25 -50t-24 -47t-52 -12q-33 0 -69 10t-64 22l-49 -104 q43 -14 91 -24.5t101 -10.5q117 0 194.5 41t77.5 131z" />
<glyph unicode="&#xc8;" horiz-adv-x="1361" d="M942 1565v57l-541 268v-213zM946 1352l230 -328h36v430h-1146v-78h124l80 -86v-1126l-80 -86h-124v-78h1142l92 451h-36l-322 -349h-379v609h160l188 -308h37v717h-37l-188 -307h-160v539h383z" />
<glyph unicode="&#xc9;" horiz-adv-x="1361" d="M942 1677v213l-541 -268v-57zM946 1352l230 -328h36v430h-1146v-78h124l80 -86v-1126l-80 -86h-124v-78h1142l92 451h-36l-322 -349h-379v609h160l188 -308h37v717h-37l-188 -307h-160v539h383z" />
<glyph unicode="&#xca;" horiz-adv-x="1361" d="M999 1565v57l-327 268l-328 -268v-57l328 112zM946 1352l230 -328h36v430h-1146v-78h124l80 -86v-1126l-80 -86h-124v-78h1142l92 451h-36l-322 -349h-379v609h160l188 -308h37v717h-37l-188 -307h-160v539h383z" />
<glyph unicode="&#xcb;" horiz-adv-x="1361" d="M1024 1724q0 59 -40 99.5t-99 40.5t-99.5 -40t-40.5 -100q0 -59 40 -99t100 -40q59 0 99 40t40 99zM600 1724q0 59 -40 99.5t-99 40.5t-99 -40t-40 -100q0 -59 39.5 -99t99.5 -40q59 0 99 40t40 99zM946 1352l230 -328h36v430h-1146v-78h124l80 -86v-1126l-80 -86h-124 v-78h1142l92 451h-36l-322 -349h-379v609h160l188 -308h37v717h-37l-188 -307h-160v539h383z" />
<glyph unicode="&#xcc;" horiz-adv-x="843" d="M692 1565v57l-540 268v-213zM573 1290l78 86h127v78h-712v-78h124l80 -86v-1126l-80 -86h-124v-78h712v78h-127l-78 86v1126z" />
<glyph unicode="&#xcd;" horiz-adv-x="843" d="M692 1677v213l-540 -268v-57zM573 1290l78 86h127v78h-712v-78h124l80 -86v-1126l-80 -86h-124v-78h712v78h-127l-78 86v1126z" />
<glyph unicode="&#xce;" horiz-adv-x="843" d="M750 1565v57l-328 268l-328 -268v-57l328 112zM573 1290l78 86h127v78h-712v-78h124l80 -86v-1126l-80 -86h-124v-78h712v78h-127l-78 86v1126z" />
<glyph unicode="&#xcf;" horiz-adv-x="843" d="M772 1724q0 59 -40 99.5t-99 40.5t-99 -40t-40 -100q0 -59 39.5 -99t99.5 -40q59 0 99 40t40 99zM348 1724q0 59 -40 99.5t-99 40.5t-99 -40t-40 -100q0 -59 40 -99t99 -40t99 40t40 99zM573 1290l78 86h127v78h-712v-78h124l80 -86v-1126l-80 -86h-124v-78h712v78h-127 l-78 86v1126z" />
<glyph unicode="&#xd0;" horiz-adv-x="1538" d="M928 723v102h-361v-102h361zM526 825h41v494q14 8 37 16q18 6 46 11.5t63 5.5q98 0 176 -52.5t131 -143.5t80.5 -215t27.5 -269q0 -137 -19 -239.5t-63.5 -171t-117 -102.5t-178.5 -34q-41 0 -76 6t-58 16q-29 8 -49 23v553h-41v102zM719 0q143 0 276 56.5t234.5 156.5 t162 235.5t60.5 294.5q0 160 -43 290t-132 224.5t-226.5 145.5t-327.5 51h-653v-78h125l79 -86v-465h-206v-102h206v-559l-79 -86h-125v-78h649z" />
<glyph unicode="&#xd1;" horiz-adv-x="1597" d="M911 1669q70 0 131.5 46t104.5 112l-60 57q-25 -23 -68.5 -48.5t-88.5 -25.5q-27 0 -52.5 12.5t-53 28t-59.5 27.5t-71 12q-70 0 -130 -48t-105 -113l59 -54q25 23 69 48.5t89 25.5q35 0 62.5 -12.5t53 -27.5t54 -27.5t65.5 -12.5zM1559 1376v78h-582v-78h145l97 -127 v-768h-5l-735 973h-352v-57l145 -197v-993l-84 -129h-141v-78h582v78h-146l-96 129v866h4l830 -1093h112v1269l88 127h138z" />
<glyph unicode="&#xd2;" horiz-adv-x="1593" d="M1067 1565v57l-541 268v-213zM879 100q-111 0 -199 60.5t-150.5 166t-96.5 247t-34 300.5q0 236 90.5 362t239.5 126q111 0 197 -63.5t145 -171t91 -250t32 -297.5q0 -236 -82.5 -358t-232.5 -122zM797 1481q-162 0 -294 -59.5t-225.5 -162t-143.5 -239.5t-50 -295 q0 -156 51 -292t144.5 -238.5t224.5 -162t293 -59.5t294 59.5t225 162t143 239.5t50 295q0 156 -51 292t-144 238.5t-224 162t-293 59.5z" />
<glyph unicode="&#xd3;" horiz-adv-x="1593" d="M1067 1677v213l-541 -268v-57zM879 100q-111 0 -199 60.5t-150.5 166t-96.5 247t-34 300.5q0 236 90.5 362t239.5 126q111 0 197 -63.5t145 -171t91 -250t32 -297.5q0 -236 -82.5 -358t-232.5 -122zM797 1481q-162 0 -294 -59.5t-225.5 -162t-143.5 -239.5t-50 -295 q0 -156 51 -292t144.5 -238.5t224.5 -162t293 -59.5t294 59.5t225 162t143 239.5t50 295q0 156 -51 292t-144 238.5t-224 162t-293 59.5z" />
<glyph unicode="&#xd4;" horiz-adv-x="1593" d="M1124 1565v57l-327 268l-328 -268v-57l328 112zM879 100q-111 0 -199 60.5t-150.5 166t-96.5 247t-34 300.5q0 236 90.5 362t239.5 126q111 0 197 -63.5t145 -171t91 -250t32 -297.5q0 -236 -82.5 -358t-232.5 -122zM797 1481q-162 0 -294 -59.5t-225.5 -162 t-143.5 -239.5t-50 -295q0 -156 51 -292t144.5 -238.5t224.5 -162t293 -59.5t294 59.5t225 162t143 239.5t50 295q0 156 -51 292t-144 238.5t-224 162t-293 59.5z" />
<glyph unicode="&#xd5;" horiz-adv-x="1593" d="M905 1669q70 0 131.5 46t104.5 112l-60 57q-25 -23 -68.5 -48.5t-88.5 -25.5q-27 0 -52.5 12.5t-53 28t-59.5 27.5t-71 12q-70 0 -130 -48t-105 -113l59 -54q25 23 69 48.5t89 25.5q35 0 62.5 -12.5t53 -27.5t54 -27.5t65.5 -12.5zM879 100q-111 0 -199 60.5t-150.5 166 t-96.5 247t-34 300.5q0 236 90.5 362t239.5 126q111 0 197 -63.5t145 -171t91 -250t32 -297.5q0 -236 -82.5 -358t-232.5 -122zM797 1481q-162 0 -294 -59.5t-225.5 -162t-143.5 -239.5t-50 -295q0 -156 51 -292t144.5 -238.5t224.5 -162t293 -59.5t294 59.5t225 162 t143 239.5t50 295q0 156 -51 292t-144 238.5t-224 162t-293 59.5z" />
<glyph unicode="&#xd6;" horiz-adv-x="1593" d="M1147 1724q0 59 -40 99.5t-99 40.5t-99.5 -40t-40.5 -100q0 -59 40 -99t100 -40q59 0 99 40t40 99zM723 1724q0 59 -40 99.5t-99 40.5t-99.5 -40t-40.5 -100q0 -59 40 -99t100 -40q59 0 99 40t40 99zM879 100q-111 0 -199 60.5t-150.5 166t-96.5 247t-34 300.5 q0 236 90.5 362t239.5 126q111 0 197 -63.5t145 -171t91 -250t32 -297.5q0 -236 -82.5 -358t-232.5 -122zM797 1481q-162 0 -294 -59.5t-225.5 -162t-143.5 -239.5t-50 -295q0 -156 51 -292t144.5 -238.5t224.5 -162t293 -59.5t294 59.5t225 162t143 239.5t50 295 q0 156 -51 292t-144 238.5t-224 162t-293 59.5z" />
<glyph unicode="&#xd7;" horiz-adv-x="1058" d="M102 346l340 361l-340 358l97 98l336 -360l337 356l95 -90l-340 -356l342 -363l-92 -92l-342 358l-340 -356z" />
<glyph unicode="&#xd8;" horiz-adv-x="1593" d="M879 100q-98 0 -177 46.5t-139 127.5l543 783q43 -100 65.5 -222t22.5 -255q0 -236 -82.5 -358t-232.5 -122zM729 1362q98 0 177 -51t138 -142l-546 -786q-47 100 -73 225t-26 266q0 236 90 362t240 126zM797 1481q-162 0 -294 -59.5t-225.5 -162t-143.5 -239.5t-50 -295 q0 -178 64.5 -328.5t183.5 -255.5l-99 -141h140l51 74q78 -47 171 -74t202 -27q162 0 294 59.5t225 162t143 239.5t50 295q0 172 -61.5 319.5t-173.5 251.5l106 154h-139l-57 -84q-82 53 -179 82t-208 29z" />
<glyph unicode="&#xd9;" horiz-adv-x="1581" d="M1143 1565v57l-541 268v-213zM1556 1376v78h-567v-78h152l96 -127v-651q0 -236 -91 -366t-284 -130q-102 0 -165.5 32t-100.5 91.5t-50.5 147.5t-13.5 202v715l82 86h142v78h-731v-78h120l84 -86v-741q0 -156 41 -265.5t120 -178t193.5 -100.5t260.5 -32 q143 0 240.5 50.5t156.5 136.5t85 199.5t26 240.5v649l84 127h120z" />
<glyph unicode="&#xda;" horiz-adv-x="1581" d="M1122 1677v213l-540 -268v-57zM1556 1376v78h-567v-78h152l96 -127v-651q0 -236 -91 -366t-284 -130q-102 0 -165.5 32t-100.5 91.5t-50.5 147.5t-13.5 202v715l82 86h142v78h-731v-78h120l84 -86v-741q0 -156 41 -265.5t120 -178t193.5 -100.5t260.5 -32 q143 0 240.5 50.5t156.5 136.5t85 199.5t26 240.5v649l84 127h120z" />
<glyph unicode="&#xdb;" horiz-adv-x="1581" d="M1180 1565v57l-328 268l-328 -268v-57l328 112zM1556 1376v78h-567v-78h152l96 -127v-651q0 -236 -91 -366t-284 -130q-102 0 -165.5 32t-100.5 91.5t-50.5 147.5t-13.5 202v715l82 86h142v78h-731v-78h120l84 -86v-741q0 -156 41 -265.5t120 -178t193.5 -100.5 t260.5 -32q143 0 240.5 50.5t156.5 136.5t85 199.5t26 240.5v649l84 127h120z" />
<glyph unicode="&#xdc;" horiz-adv-x="1581" d="M1223 1724q0 59 -40 99.5t-100 40.5q-59 0 -99 -40t-40 -100q0 -59 40 -99t99 -40t99.5 40t40.5 99zM799 1724q0 59 -40 99.5t-100 40.5q-59 0 -99 -40t-40 -100q0 -59 40 -99t99 -40t99.5 40t40.5 99zM1556 1376v78h-567v-78h152l96 -127v-651q0 -236 -91 -366 t-284 -130q-102 0 -165.5 32t-100.5 91.5t-50.5 147.5t-13.5 202v715l82 86h142v78h-731v-78h120l84 -86v-741q0 -156 41 -265.5t120 -178t193.5 -100.5t260.5 -32q143 0 240.5 50.5t156.5 136.5t85 199.5t26 240.5v649l84 127h120z" />
<glyph unicode="&#xdd;" horiz-adv-x="1347" d="M958 1677v213l-540 -268v-57zM1315 1397v57h-473v-78h86l114 -153l-251 -435h-5l-317 502l76 86h100v78h-625v-57l84 -86l441 -688v-459l-101 -86h-98v-78h688v78h-100l-96 86v510l389 637z" />
<glyph unicode="&#xde;" horiz-adv-x="1294" d="M573 1290l78 86h127v78h-712v-78h124l80 -86v-1126l-80 -86h-124v-78h712v78h-127l-78 86v860q29 12 67 21.5t85 9.5q35 0 74 -13.5t71.5 -45t54 -84t21.5 -130.5q0 -84 -19.5 -146.5t-53 -104.5t-77.5 -62t-91 -20h-58v-72h74q111 0 207 31.5t167.5 88t112.5 135.5 t41 171q0 106 -37.5 178t-107.5 116t-170 62.5t-223 18.5h-138v112z" />
<glyph unicode="&#xdf;" horiz-adv-x="1331" d="M872 1006q-115 -25 -183 -105t-68 -190q0 -90 35.5 -151.5t90 -106.5t118 -76t117.5 -59.5t90 -59.5t36 -74q0 -41 -22.5 -61.5t-63.5 -20.5q-37 0 -76 16.5t-77 45.5t-70.5 65.5t-57.5 77.5l-36 62h-82v-389h53l45 86q14 -12 37.5 -27.5t56.5 -30t77 -25t103 -10.5 q43 0 95.5 17.5t96.5 54.5t73.5 94.5t29.5 134.5q0 98 -35.5 162t-89 107t-117 70.5t-116.5 54t-89 57.5t-36 80q0 59 44 83.5t97 24.5h94q14 14 35 39t39.5 56.5t30.5 71.5t12 87q0 68 -44 125.5t-115.5 99.5t-164 65.5t-188.5 23.5q-88 0 -172 -27t-150.5 -83t-106.5 -144 t-40 -211v-12h-119v-68l123 -31v-762l-57 -65h-66v-78h400v1094q0 162 50 224t140 62q94 0 158.5 -66.5t64.5 -183.5v-124z" />
<glyph unicode="&#xe0;" horiz-adv-x="1048" d="M791 1155v57l-541 269v-213zM510 930q45 0 75.5 -29t30.5 -117v-176l-106 -12q-96 -12 -178 -41t-141.5 -74t-93.5 -107.5t-34 -140.5t25 -129t62.5 -79.5t85 -40t90.5 -11.5q86 0 153.5 37t141.5 123h4l-23 -153l404 20v57h-54l-59 66v614q0 59 -18.5 112.5t-61.5 93.5 t-116.5 63.5t-184.5 23.5q-55 0 -122.5 -16.5t-128 -49t-100.5 -84t-40 -120.5q0 -59 12 -80h262v115q0 61 35 98t80 37zM616 236q-45 -51 -89 -74t-87 -23t-67.5 40t-24.5 95q0 80 59.5 141.5t163.5 84.5l45 8v-272z" />
<glyph unicode="&#xe1;" horiz-adv-x="1048" d="M791 1268v213l-541 -269v-57zM510 930q45 0 75.5 -29t30.5 -117v-176l-106 -12q-96 -12 -178 -41t-141.5 -74t-93.5 -107.5t-34 -140.5t25 -129t62.5 -79.5t85 -40t90.5 -11.5q86 0 153.5 37t141.5 123h4l-23 -153l404 20v57h-54l-59 66v614q0 59 -18.5 112.5t-61.5 93.5 t-116.5 63.5t-184.5 23.5q-55 0 -122.5 -16.5t-128 -49t-100.5 -84t-40 -120.5q0 -59 12 -80h262v115q0 61 35 98t80 37zM616 236q-45 -51 -89 -74t-87 -23t-67.5 40t-24.5 95q0 80 59.5 141.5t163.5 84.5l45 8v-272z" />
<glyph unicode="&#xe2;" horiz-adv-x="1048" d="M848 1155v57l-328 269l-327 -269v-57l327 113zM510 930q45 0 75.5 -29t30.5 -117v-176l-106 -12q-96 -12 -178 -41t-141.5 -74t-93.5 -107.5t-34 -140.5t25 -129t62.5 -79.5t85 -40t90.5 -11.5q86 0 153.5 37t141.5 123h4l-23 -153l404 20v57h-54l-59 66v614 q0 59 -18.5 112.5t-61.5 93.5t-116.5 63.5t-184.5 23.5q-55 0 -122.5 -16.5t-128 -49t-100.5 -84t-40 -120.5q0 -59 12 -80h262v115q0 61 35 98t80 37zM616 236q-45 -51 -89 -74t-87 -23t-67.5 40t-24.5 95q0 80 59.5 141.5t163.5 84.5l45 8v-272z" />
<glyph unicode="&#xe3;" horiz-adv-x="1048" d="M629 1260q70 0 131 46t104 111l-59 58q-25 -23 -69 -48.5t-89 -25.5q-27 0 -52.5 12t-53 27.5t-59 28t-70.5 12.5q-70 0 -130.5 -48.5t-105.5 -113.5l60 -53q25 23 68.5 48t88.5 25q35 0 62.5 -12t53.5 -27.5t54.5 -27.5t65.5 -12zM510 930q45 0 75.5 -29t30.5 -117v-176 l-106 -12q-96 -12 -178 -41t-141.5 -74t-93.5 -107.5t-34 -140.5t25 -129t62.5 -79.5t85 -40t90.5 -11.5q86 0 153.5 37t141.5 123h4l-23 -153l404 20v57h-54l-59 66v614q0 59 -18.5 112.5t-61.5 93.5t-116.5 63.5t-184.5 23.5q-55 0 -122.5 -16.5t-128 -49t-100.5 -84 t-40 -120.5q0 -59 12 -80h262v115q0 61 35 98t80 37zM616 236q-45 -51 -89 -74t-87 -23t-67.5 40t-24.5 95q0 80 59.5 141.5t163.5 84.5l45 8v-272z" />
<glyph unicode="&#xe4;" horiz-adv-x="1048" d="M870 1315q0 59 -39.5 99t-99.5 40q-59 0 -99 -40t-40 -99t40 -99t99 -40t99 40t40 99zM446 1315q0 59 -39.5 99t-99.5 40q-59 0 -99 -40t-40 -99t40 -99t99 -40t99 40t40 99zM510 930q45 0 75.5 -29t30.5 -117v-176l-106 -12q-96 -12 -178 -41t-141.5 -74t-93.5 -107.5 t-34 -140.5t25 -129t62.5 -79.5t85 -40t90.5 -11.5q86 0 153.5 37t141.5 123h4l-23 -153l404 20v57h-54l-59 66v614q0 59 -18.5 112.5t-61.5 93.5t-116.5 63.5t-184.5 23.5q-55 0 -122.5 -16.5t-128 -49t-100.5 -84t-40 -120.5q0 -59 12 -80h262v115q0 61 35 98t80 37z M616 236q-45 -51 -89 -74t-87 -23t-67.5 40t-24.5 95q0 80 59.5 141.5t163.5 84.5l45 8v-272z" />
<glyph unicode="&#xe5;" horiz-adv-x="1048" d="M604 1313q0 -35 -24.5 -58.5t-61.5 -23.5q-35 0 -58.5 23.5t-23.5 58.5q0 37 23.5 61.5t58.5 24.5q37 0 61.5 -24.5t24.5 -61.5zM686 1313q0 72 -48 120t-120 48q-70 0 -118 -48.5t-48 -119.5q0 -70 48.5 -118t117.5 -48q72 0 120 48t48 118zM510 930q45 0 75.5 -29 t30.5 -117v-176l-106 -12q-96 -12 -178 -41t-141.5 -74t-93.5 -107.5t-34 -140.5t25 -129t62.5 -79.5t85 -40t90.5 -11.5q86 0 153.5 37t141.5 123h4l-23 -153l404 20v57h-54l-59 66v614q0 59 -18.5 112.5t-61.5 93.5t-116.5 63.5t-184.5 23.5q-55 0 -122.5 -16.5t-128 -49 t-100.5 -84t-40 -120.5q0 -59 12 -80h262v115q0 61 35 98t80 37zM616 236q-45 -51 -89 -74t-87 -23t-67.5 40t-24.5 95q0 80 59.5 141.5t163.5 84.5l45 8v-272z" />
<glyph unicode="&#xe6;" horiz-adv-x="1556" d="M893 696q20 127 75.5 176.5t112.5 49.5q55 0 94 -34t39 -116v-76h-321zM616 236q-45 -51 -89 -74t-87 -23t-67.5 40t-24.5 95q0 80 59.5 140.5t163.5 83.5l45 8v-270zM1466 621v96q0 61 -25.5 117.5t-73.5 100.5t-117.5 69.5t-159.5 25.5q-78 0 -145.5 -27.5 t-123.5 -74.5q-39 47 -111.5 74.5t-197.5 27.5q-55 0 -122.5 -16.5t-128 -49t-100.5 -84t-40 -120.5q0 -59 12 -80h262v115q0 61 35 98t80 37t75.5 -29t30.5 -117v-166l-106 -12q-96 -12 -178 -41.5t-141.5 -78t-93.5 -112t-34 -141.5t25 -129t62.5 -79.5t85 -40t90.5 -11.5 q84 0 188 51.5t191 165.5q55 -98 150 -157.5t232 -59.5q160 0 265.5 98.5t158.5 272.5l-47 21q-47 -76 -115.5 -114t-170.5 -38q-55 0 -107.5 19.5t-94.5 63.5t-66.5 113.5t-24.5 170.5v16h557z" />
<glyph unicode="&#xe7;" horiz-adv-x="987" d="M731 -254q0 76 -57.5 108.5t-143.5 32.5h-28l28 86q156 4 255.5 99.5t152.5 267.5l-47 20q-41 -61 -110.5 -104t-162.5 -43q-47 0 -98 19.5t-93 63.5t-68.5 113.5t-26.5 170.5q0 98 18.5 163.5t48 105.5t64.5 56.5t65 16.5q41 0 69 -29t28 -105v-83h266q8 18 14 45.5 t6 54.5q0 55 -32.5 98t-81.5 72t-106.5 42t-108.5 13q-127 0 -222.5 -45t-160 -119.5t-97 -174t-32.5 -208.5q0 -88 23.5 -170t69.5 -149.5t111.5 -114.5t151.5 -65l-70 -166l15 -13h63q41 0 65.5 -15t24.5 -50t-23.5 -47t-51.5 -12q-33 0 -69 10t-65 22l-49 -104 q43 -14 91.5 -24.5t101.5 -10.5q117 0 194.5 41t77.5 131z" />
<glyph unicode="&#xe8;" horiz-adv-x="993" d="M330 696q20 127 75.5 176.5t112.5 49.5q55 0 94 -34t39 -116v-76h-321zM795 1155v57l-541 269v-213zM903 621v96q0 61 -25.5 117.5t-73.5 100.5t-118 69.5t-160 25.5q-100 0 -184 -45t-144.5 -119.5t-94 -174t-33.5 -208.5q0 -98 28.5 -190t86 -163t142.5 -114t197 -43 q160 0 265.5 98.5t158.5 272.5l-47 21q-47 -76 -115.5 -114t-171.5 -38q-55 0 -107 19.5t-94 63.5t-66.5 113.5t-24.5 170.5v16h557z" />
<glyph unicode="&#xe9;" horiz-adv-x="993" d="M330 696q20 127 75.5 176.5t112.5 49.5q55 0 94 -34t39 -116v-76h-321zM795 1268v213l-541 -269v-57zM903 621v96q0 61 -25.5 117.5t-73.5 100.5t-118 69.5t-160 25.5q-100 0 -184 -45t-144.5 -119.5t-94 -174t-33.5 -208.5q0 -98 28.5 -190t86 -163t142.5 -114t197 -43 q160 0 265.5 98.5t158.5 272.5l-47 21q-47 -76 -115.5 -114t-171.5 -38q-55 0 -107 19.5t-94 63.5t-66.5 113.5t-24.5 170.5v16h557z" />
<glyph unicode="&#xea;" horiz-adv-x="993" d="M330 696q20 127 75.5 176.5t112.5 49.5q55 0 94 -34t39 -116v-76h-321zM852 1155v57l-328 269l-327 -269v-57l327 113zM903 621v96q0 61 -25.5 117.5t-73.5 100.5t-118 69.5t-160 25.5q-100 0 -184 -45t-144.5 -119.5t-94 -174t-33.5 -208.5q0 -98 28.5 -190t86 -163 t142.5 -114t197 -43q160 0 265.5 98.5t158.5 272.5l-47 21q-47 -76 -115.5 -114t-171.5 -38q-55 0 -107 19.5t-94 63.5t-66.5 113.5t-24.5 170.5v16h557z" />
<glyph unicode="&#xeb;" horiz-adv-x="993" d="M330 696q20 127 75.5 176.5t112.5 49.5q55 0 94 -34t39 -116v-76h-321zM453 1315q0 59 -40 99t-100 40q-59 0 -99 -40t-40 -99t40 -99t99 -40t99.5 40t40.5 99zM877 1315q0 59 -40 99t-100 40q-59 0 -99 -40t-40 -99t40 -99t99 -40t99.5 40t40.5 99zM903 621v96 q0 61 -25.5 117.5t-73.5 100.5t-118 69.5t-160 25.5q-100 0 -184 -45t-144.5 -119.5t-94 -174t-33.5 -208.5q0 -98 28.5 -190t86 -163t142.5 -114t197 -43q160 0 265.5 98.5t158.5 272.5l-47 21q-47 -76 -115.5 -114t-171.5 -38q-55 0 -107 19.5t-94 63.5t-66.5 113.5 t-24.5 170.5v16h557z" />
<glyph unicode="&#xec;" horiz-adv-x="647" d="M598 1155v57l-541 269v-213zM467 1024l-416 -20v-78h80l59 -66v-717l-57 -65h-80v-78h565v78h-90l-61 65v881z" />
<glyph unicode="&#xed;" horiz-adv-x="647" d="M598 1268v213l-541 -269v-57zM467 1024l-416 -20v-78h80l59 -66v-717l-57 -65h-80v-78h565v78h-90l-61 65v881z" />
<glyph unicode="&#xee;" horiz-adv-x="647" d="M655 1155v57l-327 269l-328 -269v-57l328 113zM467 1024l-416 -20v-78h80l59 -66v-717l-57 -65h-80v-78h565v78h-90l-61 65v881z" />
<glyph unicode="&#xef;" horiz-adv-x="647" d="M680 1315q0 59 -40 99t-99 40t-99.5 -40t-40.5 -99t40 -99t100 -40q59 0 99 40t40 99zM256 1315q0 59 -40 99t-99 40t-99.5 -40t-40.5 -99t40 -99t100 -40q59 0 99 40t40 99zM467 1024l-416 -20v-78h80l59 -66v-717l-57 -65h-80v-78h565v78h-90l-61 65v881z" />
<glyph unicode="&#xf0;" horiz-adv-x="1128" d="M383 395q0 76 12.5 148.5t37 130t62 91.5t89.5 34q166 0 166 -299q0 -82 -14.5 -158t-40 -133t-63.5 -92t-87 -35q-82 0 -122 69.5t-40 243.5zM1055 500q0 66 -14.5 142.5t-47 159.5t-84 168t-127.5 167l187 47v102l-271 -67q-84 76 -191.5 142t-242.5 120v-78 q72 -41 143.5 -97.5t133.5 -125.5l-105 -25v-102l174 43q39 -53 70 -111.5t53 -118.5h-4q-27 14 -72 27.5t-125 13.5q-102 0 -186 -31.5t-143.5 -91t-93 -145.5t-33.5 -193q0 -102 39 -189t103.5 -150.5t150.5 -98.5t182 -35q113 0 206 43t159.5 115t102.5 168.5t36 200.5z " />
<glyph unicode="&#xf1;" horiz-adv-x="1249" d="M733 1260q70 0 131.5 46t104.5 111l-60 58q-25 -23 -68.5 -48.5t-88.5 -25.5q-27 0 -52.5 12t-53.5 27.5t-59.5 28t-70.5 12.5q-70 0 -130 -48.5t-105 -113.5l59 -53q25 23 69 48t89 25q35 0 62.5 -12t53 -27.5t54 -27.5t65.5 -12zM465 1024l-410 -20v-78h74l59 -66v-717 l-59 -65h-74v-78h535v78h-68l-57 65v605q49 51 97 81.5t97 30.5q25 0 50.5 -6t45 -25.5t33 -54.5t13.5 -92v-539l-58 -65h-69v-78h536v78h-71l-62 65v568q0 143 -78.5 231t-232.5 88q-96 0 -176 -49t-137 -135h-4z" />
<glyph unicode="&#xf2;" horiz-adv-x="1138" d="M840 1155v57l-541 269v-213zM770 430q0 -72 -6 -134.5t-24.5 -110.5t-52.5 -75.5t-87 -27.5q-59 0 -103 48t-73 122t-43 161t-14 165q0 72 9 135t29.5 109t53.5 73t82 27q61 0 105 -48.5t71.5 -122t40 -159.5t12.5 -162zM1069 508q0 117 -37 213t-103.5 164.5 t-158.5 106.5t-203 38q-109 0 -200 -39t-157.5 -108.5t-103 -164.5t-36.5 -208q0 -117 35.5 -215t102 -170t159 -112t206.5 -40q106 0 197.5 41t157 113t103.5 169t38 212z" />
<glyph unicode="&#xf3;" horiz-adv-x="1138" d="M840 1268v213l-541 -269v-57zM770 430q0 -72 -6 -134.5t-24.5 -110.5t-52.5 -75.5t-87 -27.5q-59 0 -103 48t-73 122t-43 161t-14 165q0 72 9 135t29.5 109t53.5 73t82 27q61 0 105 -48.5t71.5 -122t40 -159.5t12.5 -162zM1069 508q0 117 -37 213t-103.5 164.5 t-158.5 106.5t-203 38q-109 0 -200 -39t-157.5 -108.5t-103 -164.5t-36.5 -208q0 -117 35.5 -215t102 -170t159 -112t206.5 -40q106 0 197.5 41t157 113t103.5 169t38 212z" />
<glyph unicode="&#xf4;" horiz-adv-x="1138" d="M897 1155v57l-328 269l-327 -269v-57l327 113zM770 430q0 -72 -6 -134.5t-24.5 -110.5t-52.5 -75.5t-87 -27.5q-59 0 -103 48t-73 122t-43 161t-14 165q0 72 9 135t29.5 109t53.5 73t82 27q61 0 105 -48.5t71.5 -122t40 -159.5t12.5 -162zM1069 508q0 117 -37 213 t-103.5 164.5t-158.5 106.5t-203 38q-109 0 -200 -39t-157.5 -108.5t-103 -164.5t-36.5 -208q0 -117 35.5 -215t102 -170t159 -112t206.5 -40q106 0 197.5 41t157 113t103.5 169t38 212z" />
<glyph unicode="&#xf5;" horiz-adv-x="1138" d="M678 1260q70 0 131 46t104 111l-59 58q-25 -23 -69 -48.5t-89 -25.5q-27 0 -52.5 12t-53 27.5t-59 28t-70.5 12.5q-70 0 -130.5 -48.5t-105.5 -113.5l60 -53q25 23 68.5 48t88.5 25q35 0 62.5 -12t53.5 -27.5t54.5 -27.5t65.5 -12zM770 430q0 -72 -6 -134.5t-24.5 -110.5 t-52.5 -75.5t-87 -27.5q-59 0 -103 48t-73 122t-43 161t-14 165q0 72 9 135t29.5 109t53.5 73t82 27q61 0 105 -48.5t71.5 -122t40 -159.5t12.5 -162zM1069 508q0 117 -37 213t-103.5 164.5t-158.5 106.5t-203 38q-109 0 -200 -39t-157.5 -108.5t-103 -164.5t-36.5 -208 q0 -117 35.5 -215t102 -170t159 -112t206.5 -40q106 0 197.5 41t157 113t103.5 169t38 212z" />
<glyph unicode="&#xf6;" horiz-adv-x="1138" d="M920 1315q0 59 -40 99t-100 40q-59 0 -99 -40t-40 -99t40 -99t99 -40t99.5 40t40.5 99zM496 1315q0 59 -40 99t-100 40q-59 0 -99 -40t-40 -99t40 -99t99 -40t99.5 40t40.5 99zM770 430q0 -72 -6 -134.5t-24.5 -110.5t-52.5 -75.5t-87 -27.5q-59 0 -103 48t-73 122 t-43 161t-14 165q0 72 9 135t29.5 109t53.5 73t82 27q61 0 105 -48.5t71.5 -122t40 -159.5t12.5 -162zM1069 508q0 117 -37 213t-103.5 164.5t-158.5 106.5t-203 38q-109 0 -200 -39t-157.5 -108.5t-103 -164.5t-36.5 -208q0 -117 35.5 -215t102 -170t159 -112t206.5 -40 q106 0 197.5 41t157 113t103.5 169t38 212z" />
<glyph unicode="&#xf7;" horiz-adv-x="1220" d="M750 258q0 57 -40 98t-100 41q-59 0 -99 -41t-40 -98q0 -59 40 -100t99 -41t99.5 41t40.5 100zM748 891q0 57 -40 98t-100 41q-59 0 -99 -41t-40 -98q0 -59 40 -100t99 -41t99.5 41t40.5 100zM1112 516v115h-1003v-115h1003z" />
<glyph unicode="&#xf8;" horiz-adv-x="1136" d="M539 922q51 0 89 -35t66 -88l-307 -428q-12 53 -17 105t-5 102q0 72 9 135t29.5 109t53.5 73t82 27zM768 430q0 -72 -6 -134.5t-24.5 -110.5t-52.5 -75.5t-87 -27.5q-57 0 -99 44t-71 112l311 434q16 -59 22.5 -123t6.5 -119zM817 969q-55 29 -117.5 45t-134.5 16 q-109 0 -200 -39t-157.5 -108.5t-103 -164.5t-36.5 -208q0 -119 36.5 -217t104.5 -170l-88 -123h137l35 49q121 -76 278 -76q106 0 197.5 41t157 113t103.5 169t38 212q0 127 -42 227.5t-118 169.5l90 125h-137z" />
<glyph unicode="&#xf9;" horiz-adv-x="1218" d="M893 1155v57l-541 269v-213zM1040 1024l-399 -20v-78h64l59 -66v-604q-49 -51 -89 -82t-102 -31q-61 0 -97 44t-36 135v702l-395 -20v-78h59l60 -66v-567q0 -143 77.5 -231.5t221.5 -88.5q82 0 162 47.5t151 147.5h4l-16 -188l424 20v78h-88l-60 65v881z" />
<glyph unicode="&#xfa;" horiz-adv-x="1218" d="M893 1268v213l-541 -269v-57zM1040 1024l-399 -20v-78h64l59 -66v-604q-49 -51 -89 -82t-102 -31q-61 0 -97 44t-36 135v702l-395 -20v-78h59l60 -66v-567q0 -143 77.5 -231.5t221.5 -88.5q82 0 162 47.5t151 147.5h4l-16 -188l424 20v78h-88l-60 65v881z" />
<glyph unicode="&#xfb;" horiz-adv-x="1218" d="M950 1155v57l-327 269l-328 -269v-57l328 113zM1040 1024l-399 -20v-78h64l59 -66v-604q-49 -51 -89 -82t-102 -31q-61 0 -97 44t-36 135v702l-395 -20v-78h59l60 -66v-567q0 -143 77.5 -231.5t221.5 -88.5q82 0 162 47.5t151 147.5h4l-16 -188l424 20v78h-88l-60 65v881 z" />
<glyph unicode="&#xfc;" horiz-adv-x="1218" d="M973 1315q0 59 -40 99t-99 40t-99.5 -40t-40.5 -99t40 -99t100 -40q59 0 99 40t40 99zM549 1315q0 59 -40 99t-99 40t-99.5 -40t-40.5 -99t40 -99t100 -40q59 0 99 40t40 99zM1040 1024l-399 -20v-78h64l59 -66v-604q-49 -51 -89 -82t-102 -31q-61 0 -97 44t-36 135v702 l-395 -20v-78h59l60 -66v-567q0 -143 77.5 -231.5t221.5 -88.5q82 0 162 47.5t151 147.5h4l-16 -188l424 20v78h-88l-60 65v881z" />
<glyph unicode="&#xfd;" horiz-adv-x="1144" d="M918 1268v213l-541 -269v-57zM883 774l-221 -612h-5l-247 698l55 66h113v78h-539v-58l57 -69l416 -1059h-377v-103q33 -49 90.5 -95t143.5 -46q96 0 167.5 71.5t112.5 182.5l393 1057l58 61v58h-381v-78h102z" />
<glyph unicode="&#xfe;" horiz-adv-x="1163" d="M416 778q43 41 82 63.5t90 22.5q104 0 160.5 -109.5t56.5 -301.5q0 -193 -54.5 -283t-144.5 -90q-66 0 -110.5 35t-79.5 102v561zM416 10q39 -16 86 -26.5t90 -10.5q121 0 214 44t156.5 121t96.5 180.5t33 220.5q0 102 -28 192t-80 156.5t-128 104.5t-174 38 q-76 0 -145.5 -41t-120.5 -98v584l-414 -21v-78h78l59 -65v-1567l-57 -66h-66v-77h564v77h-103l-61 66v266z" />
<glyph unicode="&#xff;" horiz-adv-x="1144" d="M999 1315q0 59 -39.5 99t-99.5 40q-59 0 -99 -40t-40 -99t40 -99t99 -40t99 40t40 99zM575 1315q0 59 -39.5 99t-99.5 40q-59 0 -99 -40t-40 -99t40 -99t99 -40t99 40t40 99zM883 774l-221 -612h-5l-247 698l55 66h113v78h-539v-58l57 -69l416 -1059h-377v-103 q33 -49 90.5 -95t143.5 -46q96 0 167.5 71.5t112.5 182.5l393 1057l58 61v58h-381v-78h102z" />
<glyph unicode="&#x152;" horiz-adv-x="2043" d="M952 135q-10 -8 -26 -16q-16 -6 -40 -11.5t-59 -5.5q-98 0 -176 52.5t-131 143.5t-80.5 215t-27.5 269q0 137 19.5 239.5t63.5 171.5t116.5 102.5t179.5 33.5q41 0 71.5 -7t50.5 -15q23 -10 39 -23v-1149zM821 1454q-145 0 -277 -56.5t-233.5 -156.5t-162 -235.5 t-60.5 -294.5q0 -160 43 -290t132 -224.5t226.5 -145.5t327.5 -51h1073l92 451h-36l-322 -349h-379v609h160l188 -308h37v717h-37l-188 -307h-160v539h383l230 -328h36v430h-1073z" />
<glyph unicode="&#x153;" horiz-adv-x="1812" d="M1337 922q55 0 94 -34t39 -116v-76h-321q20 127 75.5 176.5t112.5 49.5zM774 440q0 -72 -4 -136t-21.5 -113.5t-52 -79t-96.5 -29.5q-63 0 -108.5 47t-74 118.5t-42 156.5t-13.5 163q0 72 7.5 136.5t27 112.5t54 77t90.5 29q66 0 110.5 -47.5t72.5 -118t39 -155.5 t11 -161zM1722 621v96q0 61 -25.5 117.5t-73.5 100.5t-117.5 69.5t-159.5 25.5q-117 0 -210.5 -58.5t-152.5 -154.5q-66 100 -173.5 156.5t-242.5 56.5q-109 0 -200 -39t-157.5 -108.5t-103 -164.5t-36.5 -208q0 -117 35.5 -215t102 -170t159 -112t206.5 -40 q125 0 227.5 54.5t168.5 150.5q55 -92 148 -148.5t226 -56.5q160 0 265.5 98.5t158.5 272.5l-47 21q-47 -76 -115.5 -114t-170.5 -38q-55 0 -107.5 19.5t-94.5 63.5t-66.5 113.5t-24.5 170.5v16h557z" />
<glyph unicode="&#x178;" horiz-adv-x="1347" d="M1038 1724q0 59 -40 99.5t-99 40.5t-99 -40t-40 -100q0 -59 40 -99t99 -40t99 40t40 99zM614 1724q0 59 -39.5 99.5t-99.5 40.5q-59 0 -99 -40t-40 -100q0 -59 40 -99t99 -40t99 40t40 99zM1315 1397v57h-473v-78h86l114 -153l-251 -435h-5l-317 502l76 86h100v78h-625 v-57l84 -86l441 -688v-459l-101 -86h-98v-78h688v78h-100l-96 86v510l389 637z" />
<glyph unicode="&#x2c6;" horiz-adv-x="450" d="M553 1155v57l-328 269l-327 -269v-57l327 113z" />
<glyph unicode="&#x2dc;" horiz-adv-x="450" d="M334 1260q70 0 131 46t104 111l-59 58q-25 -23 -69 -48.5t-89 -25.5q-27 0 -52.5 12t-53 27.5t-59 28t-70.5 12.5q-70 0 -130.5 -48.5t-105.5 -113.5l60 -53q25 23 68.5 48t88.5 25q35 0 62.5 -12t53.5 -27.5t54.5 -27.5t65.5 -12z" />
<glyph unicode="&#x2000;" horiz-adv-x="945" />
<glyph unicode="&#x2001;" horiz-adv-x="1890" />
<glyph unicode="&#x2002;" horiz-adv-x="945" />
<glyph unicode="&#x2003;" horiz-adv-x="1890" />
<glyph unicode="&#x2004;" horiz-adv-x="630" />
<glyph unicode="&#x2005;" horiz-adv-x="472" />
<glyph unicode="&#x2006;" horiz-adv-x="315" />
<glyph unicode="&#x2007;" horiz-adv-x="315" />
<glyph unicode="&#x2008;" horiz-adv-x="236" />
<glyph unicode="&#x2009;" horiz-adv-x="378" />
<glyph unicode="&#x200a;" horiz-adv-x="105" />
<glyph unicode="&#x2010;" horiz-adv-x="700" d="M575 545v102h-450v-102h450z" />
<glyph unicode="&#x2011;" horiz-adv-x="700" d="M575 545v102h-450v-102h450z" />
<glyph unicode="&#x2012;" horiz-adv-x="700" d="M575 545v102h-450v-102h450z" />
<glyph unicode="&#x2013;" horiz-adv-x="1069" d="M944 545v102h-819v-102h819z" />
<glyph unicode="&#x2014;" horiz-adv-x="2093" d="M1968 545v102h-1843v-102h1843z" />
<glyph unicode="&#x2018;" horiz-adv-x="475" d="M362 1481q-125 -47 -197.5 -146.5t-72.5 -222.5q0 -84 42 -128t102 -44q59 0 98 40t39 99q0 57 -44 97.5t-122 42.5q0 39 15.5 72.5t40 62t55 50t61.5 34.5z" />
<glyph unicode="&#x2019;" horiz-adv-x="481" d="M131 940q125 47 197.5 146.5t72.5 222.5q0 84 -42 128t-101 44t-98 -40t-39 -100q0 -57 44 -97t122 -42q0 -39 -15.5 -72.5t-40 -62.5t-55.5 -50.5t-61 -33.5z" />
<glyph unicode="&#x201a;" horiz-adv-x="495" d="M117 -289q125 47 197.5 146.5t72.5 222.5q0 84 -42 128t-101 44t-98.5 -40t-39.5 -99q0 -57 44.5 -97.5t121.5 -42.5q0 -39 -15 -72.5t-39.5 -62t-55.5 -50t-62 -34.5z" />
<glyph unicode="&#x201c;" horiz-adv-x="894" d="M362 1481q-125 -47 -197.5 -146.5t-72.5 -222.5q0 -84 42 -128t102 -44q59 0 98 40t39 99q0 57 -44 97.5t-122 42.5q0 39 15.5 72.5t40 62t55 50t61.5 34.5zM782 1481q-125 -47 -197.5 -146.5t-72.5 -222.5q0 -84 42 -128t101 -44t98.5 40t39.5 99q0 57 -44 97.5 t-122 42.5q0 39 15 72.5t40 62t55.5 50t61.5 34.5z" />
<glyph unicode="&#x201d;" horiz-adv-x="901" d="M551 940q125 47 197.5 146.5t72.5 222.5q0 84 -42 128t-101 44t-98 -40t-39 -100q0 -57 44 -97t122 -42q0 -39 -15.5 -72.5t-40 -62.5t-55.5 -50.5t-61 -33.5zM131 940q125 47 197.5 146.5t72.5 222.5q0 84 -42 128t-101 44t-98 -40t-39 -100q0 -57 44 -97t122 -42 q0 -39 -15.5 -72.5t-40 -62.5t-55.5 -50.5t-61 -33.5z" />
<glyph unicode="&#x201e;" horiz-adv-x="915" d="M537 -289q125 47 197.5 146.5t72.5 222.5q0 84 -42 128t-101 44t-98.5 -40t-39.5 -99q0 -57 44 -97.5t122 -42.5q0 -39 -15 -72.5t-40 -62t-55.5 -50t-61.5 -34.5zM117 -289q125 47 197.5 146.5t72.5 222.5q0 84 -42 128t-101 44t-98.5 -40t-39.5 -99q0 -57 44.5 -97.5 t121.5 -42.5q0 -39 -15 -72.5t-39.5 -62t-55.5 -50t-62 -34.5z" />
<glyph unicode="&#x2022;" horiz-adv-x="720" d="M557 571q0 39 -15.5 75t-42 62.5t-62.5 42t-77 15.5t-76.5 -15.5t-62 -42t-42 -62.5t-15.5 -75q0 -82 57.5 -139t138.5 -57q82 0 139.5 57t57.5 139z" />
<glyph unicode="&#x2026;" horiz-adv-x="1476" d="M877 113q0 59 -40 99t-100 40q-59 0 -99 -40t-40 -99t40 -99.5t99 -40.5t99.5 40.5t40.5 99.5zM1370 113q0 59 -40 99t-99 40t-100 -40t-41 -99t40.5 -99.5t100.5 -40.5q59 0 99 40.5t40 99.5zM387 113q0 59 -41 99t-100 40t-99.5 -40t-40.5 -99t40 -99.5t100 -40.5 q59 0 100 40.5t41 99.5z" />
<glyph unicode="&#x202f;" horiz-adv-x="378" />
<glyph unicode="&#x2039;" horiz-adv-x="624" d="M469 72h51l-182 426l182 424h-51l-379 -394v-57z" />
<glyph unicode="&#x203a;" horiz-adv-x="624" d="M535 471v57l-379 394h-52l183 -424l-183 -426h52z" />
<glyph unicode="&#x205f;" horiz-adv-x="472" />
<glyph unicode="&#x20ac;" horiz-adv-x="1552" d="M178 842q-6 -59 -6 -117v-49h-94v-115h108q23 -127 79.5 -234.5t142.5 -185.5t201.5 -123t254.5 -45q127 -4 228.5 42t178.5 115t127 149.5t77 146.5l-78 29q-92 -129 -202 -186.5t-241 -57.5q-84 0 -155.5 25.5t-131 71.5t-104.5 110.5t-71 142.5h348v115h-379 q-12 68 -12 139v27h452v114h-442q16 96 53 173t89 131.5t116.5 84t136.5 29.5q154 0 261.5 -95t180.5 -261l31 -70h82v525h-61l-52 -76q-66 31 -165 57.5t-246 26.5q-131 0 -243 -39t-199 -108.5t-148.5 -166t-91.5 -211.5h-125v-114h100z" />
<glyph unicode="&#x2122;" horiz-adv-x="2385" d="M700 772v592h84l148 -307h57v416h-80l-55 -19h-561l-53 19h-80v-416h57l148 307h79v-592l-57 -65h-113v-78h600v78h-112zM2255 629v78h-51l-62 65v528l39 76h74v78h-387l-178 -455h-4l-181 455h-393v-78h74l39 -76v-528l-62 -65h-51v-78h354v78h-82l-57 65v455h2 l246 -598h70l237 598h4v-455l-57 -65h-62v-78h488z" />
<glyph unicode="&#x2190;" horiz-adv-x="1454" d="M436 436l-254 252h1272v100h-1249l229 232l-72 70l-362 -363l362 -365z" />
<glyph unicode="&#x2192;" horiz-adv-x="1454" d="M0 688h1272l-252 -254l72 -69l362 362l-362 363l-72 -72l229 -230h-1249v-100z" />
<glyph unicode="&#x25fc;" horiz-adv-x="1003" d="M0 1004h1004v-1004h-1004v1004z" />
<glyph unicode="&#xe110;" horiz-adv-x="1994" d="M1116 698q0 -180 -25.5 -258t-76.5 -78t-78 81t-27 255q0 176 27 259t76 83t76.5 -81t27.5 -261zM1372 698q0 98 -23.5 178t-68.5 136.5t-111.5 88.5t-154.5 32t-154.5 -32t-112 -89.5t-69 -137t-23.5 -176.5q0 -96 23.5 -176t69 -136t112 -88t154.5 -32t154.5 31 t111.5 88t68.5 137t23.5 176zM1724 0h-1454v1454h1454v-1454zM1851 -115v1684h-1708v-1684h1708z" />
<glyph unicode="&#xe111;" horiz-adv-x="1994" d="M702 891v-92l185 88v-416l-82 -86h-111v-78h643v78h-108l-82 86v655h-45zM1724 0h-1454v1454h1454v-1454zM1851 -115v1684h-1708v-1684h1708z" />
<glyph unicode="&#xe112;" horiz-adv-x="1994" d="M981 1051q35 0 61.5 -27t26.5 -86q0 -66 -37 -131.5t-98.5 -131t-139 -132t-157.5 -133.5v-103h637l61 332h-45l-84 -113h-291v4q86 43 157 87.5t122 91.5t78.5 98t27.5 113q0 63 -26.5 104t-70.5 65.5t-99 34t-113 9.5q-72 0 -134 -18.5t-108.5 -52.5t-74 -79t-27.5 -96 q0 -23 5 -39.5t10 -24.5h243v115q0 59 20.5 86t55.5 27zM1724 0h-1454v1454h1454v-1454zM1851 -115v1684h-1708v-1684h1708z" />
<glyph unicode="&#xe113;" horiz-adv-x="1994" d="M1305 981v125h-471l-72 27h-21l-45 -234h338v-4l-196 -154v-41h104q55 0 92 -26.5t37 -93.5q0 -68 -45 -105t-106 -37q-47 0 -109.5 28t-110.5 77l-51 -19q57 -135 133 -196.5t187 -61.5q160 0 245.5 75t85.5 191q0 119 -66.5 184.5t-176.5 65.5h-25zM1724 0h-1454v1454 h1454v-1454zM1851 -115v1684h-1708v-1684h1708z" />
<glyph unicode="&#xe114;" horiz-adv-x="1994" d="M924 1106q-27 -92 -57.5 -167t-65.5 -142.5t-77 -133t-93 -141.5v-59h258v-156h260v156h143v86h-143v237h-37l-223 -237h-137v4l514 553h-342zM1724 0h-1454v1454h1454v-1454zM1851 -115v1684h-1708v-1684h1708z" />
<glyph unicode="&#xe115;" horiz-adv-x="1994" d="M870 899h361l47 234h-21l-75 -27h-373l-76 -457h86q25 33 56.5 53.5t72.5 20.5q47 0 79 -38t32 -105q0 -68 -45 -105t-107 -37q-47 0 -97 17.5t-85 46.5l-51 -19q45 -109 128 -163t191 -54q133 0 214 75t81 191q0 59 -16.5 109.5t-52 86.5t-93 56.5t-137.5 20.5 q-35 0 -61.5 -8.5t-44.5 -18.5q-23 -10 -39 -24zM1724 0h-1454v1454h1454v-1454zM1851 -115v1684h-1708v-1684h1708z" />
<glyph unicode="&#xe116;" horiz-adv-x="1994" d="M1075 518q0 -158 -74 -158q-18 0 -34.5 19.5t-28.5 51.5t-19.5 70t-7.5 74q0 68 17.5 108t52.5 40q18 0 35.5 -16.5t30 -44t20.5 -65.5t8 -79zM688 578q0 -72 23.5 -130.5t64.5 -98.5t98.5 -61.5t124.5 -21.5q57 0 110.5 20.5t95.5 58.5t67.5 89t25.5 113 q0 63 -22.5 113.5t-61 86t-92 54t-112.5 18.5q-33 0 -52.5 -5t-35.5 -15h-2q29 96 85 155.5t162 106.5v72q-98 -16 -185 -72.5t-152.5 -134.5t-103.5 -170t-38 -178zM1724 0h-1454v1454h1454v-1454zM1851 -115v1684h-1708v-1684h1708z" />
<glyph unicode="&#xe117;" horiz-adv-x="1994" d="M766 1153l-64 -369h58l119 123h282v-4q-74 -84 -136 -156.5t-113.5 -141t-90.5 -136.5t-61 -141h315q10 184 69.5 369.5t192.5 346.5v82h-458l-72 27h-41zM1724 0h-1454v1454h1454v-1454zM1851 -115v1684h-1708v-1684h1708z" />
<glyph unicode="&#xe118;" horiz-adv-x="1994" d="M1083 944q0 -31 -8 -62.5t-18 -56.5q-55 35 -95 70t-40 82q0 23 17 47.5t48 24.5q45 0 70.5 -28t25.5 -77zM897 492q0 29 7 63.5t24 65.5q33 -20 63.5 -40t55 -39.5t39 -43t14.5 -49.5q0 -43 -24.5 -68t-69.5 -25q-109 1 -109 136zM719 903q0 -88 44 -145.5t103 -98.5 q-31 -14 -60.5 -33.5t-53 -44t-38 -54t-14.5 -66.5q0 -94 80 -144.5t209 -50.5q63 0 120.5 13.5t100.5 43t68 75.5t25 112q0 51 -15.5 93t-41 75t-58.5 59.5t-68 48.5q29 8 56.5 25.5t50 42.5t36 54.5t13.5 62.5q0 39 -21.5 68.5t-58.5 50t-86 32t-104 11.5 q-47 0 -98.5 -11.5t-93.5 -39t-68.5 -72t-26.5 -107.5zM1724 0h-1454v1454h1454v-1454zM1851 -115v1684h-1708v-1684h1708z" />
<glyph unicode="&#xe119;" horiz-adv-x="1994" d="M946 881q0 158 74 157q18 0 34.5 -19.5t29 -51t19.5 -69.5t7 -75q0 -68 -17.5 -107.5t-52.5 -39.5q-18 0 -35.5 16.5t-29.5 44t-20.5 65.5t-8.5 79zM1333 821q0 72 -23.5 130.5t-64.5 98.5t-98 61.5t-125 21.5q-57 0 -110.5 -20.5t-95.5 -58.5t-67.5 -89.5t-25.5 -112.5 q0 -63 22.5 -113.5t61.5 -86.5t92 -54t113 -18q33 0 52 5t36 15h2q-29 -96 -85 -155.5t-163 -106.5v-72q98 16 185 72.5t152.5 134.5t103.5 170t38 178zM1724 0h-1454v1454h1454v-1454zM1851 -115v1684h-1708v-1684h1708z" />
<glyph unicode="&#xe11b;" d="M1014 698q0 -180 -25.5 -258t-77.5 -78q-51 0 -77.5 81t-26.5 255q0 176 26.5 259t75.5 83t77 -81t28 -261zM1270 698q0 98 -23.5 178t-68.5 136.5t-112 88.5t-155 32t-154.5 -32t-111.5 -89.5t-68.5 -137t-23.5 -176.5q0 -96 23.5 -176t68.5 -136t111.5 -88t154.5 -32 t155 31t112 88t68.5 137t23.5 176zM1712 0h-1442v1454h1442v115h-1569v-1684h1569v115z" />
<glyph unicode="&#xe11c;" d="M600 891v-92l184 88v-416l-82 -86h-110v-78h643v78h-109l-82 86v655h-45zM1712 0h-1442v1454h1442v115h-1569v-1684h1569v115z" />
<glyph unicode="&#xe11d;" d="M879 1051q35 0 61.5 -27t26.5 -86q0 -66 -37 -131.5t-98.5 -131t-139.5 -132t-157 -133.5v-103h636l62 332h-45l-84 -113h-291v4q86 43 156.5 87.5t122 91.5t79 98t27.5 113q0 63 -26.5 104t-70.5 65.5t-99.5 34t-112.5 9.5q-72 0 -134.5 -18.5t-108.5 -52.5t-73.5 -79 t-27.5 -96q0 -23 5 -39.5t9 -24.5h244v115q0 59 20.5 86t55.5 27zM1712 0h-1442v1454h1442v115h-1569v-1684h1569v115z" />
<glyph unicode="&#xe11e;" d="M1202 981v125h-471l-72 27h-20l-45 -234h338v-4l-197 -154v-41h105q55 0 92 -26.5t37 -93.5q0 -68 -45 -105t-107 -37q-47 0 -109.5 28t-109.5 77l-51 -19q57 -135 133 -196.5t186 -61.5q160 0 246 75t86 191q0 119 -66.5 184.5t-177.5 65.5h-24zM1712 0h-1442v1454h1442 v115h-1569v-1684h1569v115z" />
<glyph unicode="&#xe11f;" d="M821 1106q-27 -92 -57.5 -167t-65 -142.5t-76.5 -133t-94 -141.5v-59h258v-156h261v156h143v86h-143v237h-37l-224 -237h-137v4l514 553h-342zM1712 0h-1442v1454h1442v115h-1569v-1684h1569v115z" />
<glyph unicode="&#xe120;" d="M768 899h360l48 234h-21l-76 -27h-372l-76 -457h86q25 33 56.5 53.5t72.5 20.5q47 0 78.5 -38t31.5 -105q0 -68 -45 -105t-106 -37q-47 0 -97.5 17.5t-84.5 46.5l-52 -19q45 -109 128 -163t192 -54q133 0 214 75t81 191q0 59 -16.5 109.5t-52.5 86.5t-93 56.5t-137 20.5 q-35 0 -61.5 -8.5t-45.5 -18.5q-23 -10 -39 -24zM1712 0h-1442v1454h1442v115h-1569v-1684h1569v115z" />
<glyph unicode="&#xe121;" d="M973 518q0 -158 -74 -158q-18 0 -34.5 19.5t-29 51.5t-19.5 70t-7 74q0 68 17.5 108t52.5 40q18 0 35.5 -16.5t29.5 -44t20.5 -65.5t8.5 -79zM586 578q0 -72 23.5 -130.5t64.5 -98.5t98 -61.5t125 -21.5q57 0 110.5 20.5t95.5 58.5t67.5 89t25.5 113q0 63 -22.5 113.5 t-61.5 86t-92 54t-113 18.5q-33 0 -52 -5t-36 -15h-2q29 96 85 155.5t163 106.5v72q-98 -16 -185 -72.5t-152.5 -134.5t-103.5 -170t-38 -178zM1712 0h-1442v1454h1442v115h-1569v-1684h1569v115z" />
<glyph unicode="&#xe122;" d="M664 1153l-64 -369h57l119 123h283v-4q-74 -84 -136.5 -156.5t-113.5 -141t-90 -136.5t-62 -141h316q10 184 69.5 369.5t192.5 346.5v82h-459l-71 27h-41zM1712 0h-1442v1454h1442v115h-1569v-1684h1569v115z" />
<glyph unicode="&#xe123;" d="M981 944q0 -31 -8 -62.5t-19 -56.5q-55 35 -95 70t-40 82q0 23 17.5 47.5t48.5 24.5q45 0 70.5 -28t25.5 -77zM795 492q0 29 7 63.5t23 65.5q33 -20 64 -40t55.5 -39.5t38.5 -43t14 -49.5q0 -43 -24.5 -68t-69.5 -25q-108 1 -108 136zM616 903q0 -88 44.5 -145.5 t103.5 -98.5q-29 -14 -58.5 -33.5t-53 -44t-39 -54t-15.5 -66.5q0 -94 80 -144.5t209 -50.5q63 0 120.5 13.5t100.5 43t67.5 75.5t24.5 112q0 51 -15.5 93t-41 75t-58 59.5t-67.5 48.5q29 8 56.5 25.5t50 42.5t36 54.5t13.5 62.5q0 39 -22 68.5t-58.5 50t-86 32t-104.5 11.5 q-47 0 -98 -11.5t-93 -39t-69 -72t-27 -107.5zM1712 0h-1442v1454h1442v115h-1569v-1684h1569v115z" />
<glyph unicode="&#xe124;" d="M844 881q0 158 74 157q18 0 34.5 -19.5t28.5 -51t19.5 -69.5t7.5 -75q0 -68 -17.5 -107.5t-52.5 -39.5q-18 0 -35.5 16.5t-30 44t-20.5 65.5t-8 79zM1231 821q0 72 -23.5 130.5t-64.5 98.5t-98.5 61.5t-124.5 21.5q-57 0 -110.5 -20.5t-95.5 -58.5t-67.5 -89.5 t-25.5 -112.5q0 -63 22.5 -113.5t61 -86.5t92 -54t112.5 -18q33 0 52.5 5t35.5 15h2q-29 -96 -85 -155.5t-162 -106.5v-72q98 16 185 72.5t152.5 134.5t103.5 170t38 178zM1712 0h-1442v1454h1442v115h-1569v-1684h1569v115z" />
<glyph unicode="&#xe126;" horiz-adv-x="1433" d="M657 698q0 -180 -25.5 -258t-76.5 -78t-77.5 81t-26.5 255q0 176 26.5 259t75.5 83t76.5 -81t27.5 -261zM913 698q0 98 -23.5 178t-68.5 136.5t-111.5 88.5t-154.5 32t-154.5 -32t-111.5 -89.5t-68.5 -137t-23.5 -176.5q0 -96 23.5 -176t68.5 -136t111.5 -88t154.5 -32 t154.5 31t111.5 88t68.5 137t23.5 176zM-279 -115h1569v1684h-1569v-115h1442v-1454h-1442v-115z" />
<glyph unicode="&#xe127;" horiz-adv-x="1433" d="M244 891v-92l184 88v-416l-82 -86h-110v-78h643v78h-109l-82 86v655h-45zM-279 -115h1569v1684h-1569v-115h1442v-1454h-1442v-115z" />
<glyph unicode="&#xe128;" horiz-adv-x="1433" d="M522 1051q35 0 61.5 -27t26.5 -86q0 -66 -36.5 -131.5t-98 -131t-139.5 -132t-158 -133.5v-103h637l62 332h-46l-83 -113h-291v4q86 43 156.5 87.5t121.5 91.5t79 98t28 113q0 63 -27 104t-71 65.5t-99 34t-113 9.5q-72 0 -134 -18.5t-108 -52.5t-74 -79t-28 -96 q0 -23 5.5 -39.5t9.5 -24.5h243v115q0 59 20.5 86t55.5 27zM-279 -115h1569v1684h-1569v-115h1442v-1454h-1442v-115z" />
<glyph unicode="&#xe129;" horiz-adv-x="1433" d="M846 981v125h-471l-72 27h-20l-45 -234h337v-4l-196 -154v-41h104q55 0 92 -26.5t37 -93.5q0 -68 -45 -105t-106 -37q-47 0 -109.5 28t-109.5 77l-52 -19q57 -135 133 -196.5t187 -61.5q160 0 246 75t86 191q0 119 -66.5 184.5t-177.5 65.5h-25zM-279 -115h1569v1684 h-1569v-115h1442v-1454h-1442v-115z" />
<glyph unicode="&#xe12a;" horiz-adv-x="1433" d="M465 1106q-27 -92 -57.5 -167t-65.5 -142.5t-77 -133t-93 -141.5v-59h258v-156h260v156h144v86h-144v237h-37l-223 -237h-137v4l514 553h-342zM-279 -115h1569v1684h-1569v-115h1442v-1454h-1442v-115z" />
<glyph unicode="&#xe12b;" horiz-adv-x="1433" d="M412 899h360l47 234h-20l-76 -27h-373l-76 -457h86q25 33 57 53.5t72 20.5q47 0 79 -38t32 -105q0 -68 -45 -105t-106 -37q-47 0 -97.5 17.5t-85.5 46.5l-51 -19q45 -109 128 -163t192 -54q133 0 213.5 75t80.5 191q0 59 -16 109.5t-52 86.5t-93.5 56.5t-137.5 20.5 q-35 0 -61.5 -8.5t-44.5 -18.5q-23 -10 -39 -24zM-279 -115h1569v1684h-1569v-115h1442v-1454h-1442v-115z" />
<glyph unicode="&#xe12c;" horiz-adv-x="1433" d="M616 518q0 -158 -73 -158q-18 0 -34.5 19.5t-29 51.5t-19.5 70t-7 74q0 68 17 108t52 40q18 0 35.5 -16.5t30 -44t20.5 -65.5t8 -79zM229 578q0 -72 23.5 -130.5t64.5 -98.5t98.5 -61.5t125.5 -21.5q57 0 110.5 20.5t95 58.5t67.5 89t26 113q0 63 -22.5 113.5t-61.5 86 t-92.5 54t-112.5 18.5q-33 0 -52.5 -5t-35.5 -15h-2q29 96 85 155.5t163 106.5v72q-98 -16 -185.5 -72.5t-153 -134.5t-103.5 -170t-38 -178zM-279 -115h1569v1684h-1569v-115h1442v-1454h-1442v-115z" />
<glyph unicode="&#xe12d;" horiz-adv-x="1433" d="M307 1153l-63 -369h57l119 123h282v-4q-74 -84 -136 -156.5t-113.5 -141t-90 -136.5t-61.5 -141h315q10 184 69.5 369.5t193.5 346.5v82h-459l-72 27h-41zM-279 -115h1569v1684h-1569v-115h1442v-1454h-1442v-115z" />
<glyph unicode="&#xe12e;" horiz-adv-x="1433" d="M625 944q0 -31 -8.5 -62.5t-18.5 -56.5q-55 35 -95 70t-40 82q0 23 17.5 47.5t47.5 24.5q45 0 71 -28t26 -77zM438 492q0 29 7.5 63.5t23.5 65.5q33 -20 63.5 -40t55 -39.5t39 -43t14.5 -49.5q0 -43 -24.5 -68t-69.5 -25q-109 1 -109 136zM260 903q0 -88 44 -145.5 t104 -98.5q-31 -14 -61 -33.5t-53.5 -44t-37.5 -54t-14 -66.5q0 -94 79.5 -144.5t208.5 -50.5q63 0 121 13.5t101 43t67.5 75.5t24.5 112q0 51 -15.5 93t-41 75t-58.5 59.5t-67 48.5q29 8 56 25.5t50 42.5t36 54.5t13 62.5q0 39 -21.5 68.5t-58.5 50t-86 32t-104 11.5 q-47 0 -98.5 -11.5t-93.5 -39t-68.5 -72t-26.5 -107.5zM-279 -115h1569v1684h-1569v-115h1442v-1454h-1442v-115z" />
<glyph unicode="&#xe12f;" horiz-adv-x="1433" d="M487 881q0 158 74 157q18 0 34.5 -19.5t29 -51t19.5 -69.5t7 -75q0 -68 -17.5 -107.5t-51.5 -39.5q-18 0 -36 16.5t-30 44t-20.5 65.5t-8.5 79zM874 821q0 72 -23.5 130.5t-64.5 98.5t-98 61.5t-125 21.5q-57 0 -110.5 -20.5t-95.5 -58.5t-67.5 -89.5t-25.5 -112.5 q0 -63 22.5 -113.5t61.5 -86.5t92.5 -54t112.5 -18q33 0 52.5 5t35.5 15h2q-29 -96 -85 -155.5t-163 -106.5v-72q98 16 185.5 72.5t153 134.5t103 170t37.5 178zM-279 -115h1569v1684h-1569v-115h1442v-1454h-1442v-115z" />
<glyph unicode="&#xfb06;" horiz-adv-x="1597" d="M745 946q-29 14 -47 39t-28.5 55.5t-13.5 65.5t-3 70q0 92 54.5 157.5t169.5 65.5q113 0 160.5 -59.5t47.5 -143.5q0 -59 -22.5 -101t-56.5 -67l-33 -24v-68l96 -31v-684q0 -117 57.5 -182.5t167.5 -65.5q86 0 160 40t125 120v23h-233v759h233v89h-233v73q0 100 -39 176 t-101.5 127.5t-143.5 76t-165 24.5q-90 0 -170 -28t-141.5 -78t-97 -123.5t-35.5 -166.5v-55h-17q-68 0 -129 -17.5t-108 -52t-75 -86t-28 -116.5q0 -96 39 -162t96.5 -112t126 -80.5t126 -67.5t96 -71t38.5 -93q0 -37 -21.5 -64.5t-80.5 -27.5q-100 0 -171 61.5t-140 177.5 l-41 70h-62v-389h95q45 -8 96 -14q43 -4 94 -8.5t102 -4.5q57 0 117 18.5t107 55.5t76.5 92.5t29.5 128.5q0 96 -39 162t-96 112t-124.5 79.5t-125 63.5t-96.5 63.5t-39 82.5q0 45 26.5 73t73.5 28q86 0 148.5 -60.5t111.5 -166.5l25 -54h61v295z" />
<glyph horiz-adv-x="1712" d="M768 1176q0 92 54.5 157.5t168.5 65.5q113 0 161 -59.5t48 -143.5q0 -59 -22.5 -101t-57.5 -67l-33 -24v-68l97 -31v-684q0 -117 57 -182.5t168 -65.5q86 0 159.5 40t125.5 120v23h-234v759h234v89h-234v73q0 100 -39 176t-101.5 127.5t-143 76t-164.5 24.5 q-90 0 -170 -28t-141.5 -78t-97.5 -123.5t-36 -166.5v-55q-127 0 -220 -45t-154.5 -119.5t-91 -174t-29.5 -208.5q0 -98 30.5 -190t89 -163t142.5 -114t192 -43q160 0 260.5 96.5t153.5 270.5l-47 20q-41 -61 -110.5 -104t-161.5 -43q-47 0 -98.5 19.5t-93.5 63.5 t-68.5 113.5t-26.5 170.5q0 98 18.5 163.5t48 105.5t64.5 56.5t65 16.5q41 0 69 -29t28 -105v-83h266q8 18 14 45.5t6 54.5q0 49 -22.5 89t-50 82t-50 89.5t-22.5 110.5z" />
<glyph horiz-adv-x="2123" d="M1376 778q43 41 82 63.5t90 22.5q104 0 160.5 -109.5t56.5 -301.5q0 -193 -54 -283t-144 -90q-66 0 -111 35t-80 102v561zM1354 1077q0 100 -40 176t-104.5 127.5t-146.5 76t-166 24.5q-90 0 -170 -28t-141.5 -78t-97 -123.5t-35.5 -166.5v-55h-17q-68 0 -129 -17.5 t-108 -52t-75 -86t-28 -116.5q0 -96 39 -162t96.5 -112t126 -80.5t126 -67.5t96 -71t38.5 -93q0 -37 -21.5 -64.5t-80.5 -27.5q-100 0 -171 61.5t-140 177.5l-41 70h-62v-389h95q45 -8 96 -14q43 -4 94 -8.5t102 -4.5q57 0 117 18.5t107 55.5t76.5 92.5t29.5 128.5 q0 96 -39 162t-96 112t-124.5 79.5t-125 63.5t-96.5 63.5t-39 82.5q0 45 26.5 73t73.5 28q86 0 148.5 -60.5t111.5 -166.5l25 -54h61v295q-29 14 -47 39t-28.5 55.5t-13.5 65.5t-3 70q0 92 54.5 157.5t169.5 65.5q113 0 160.5 -59.5t47.5 -143.5q0 -59 -22.5 -101t-56.5 -67 l-33 -24v-78h67l60 -66v-1116l-58 -66h-65v-77h563v77h-102l-62 66v266q39 -16 86 -26.5t90 -10.5q121 0 214.5 44t157 121t96 180.5t32.5 220.5q0 102 -27.5 192t-80 156.5t-128 104.5t-174.5 38q-84 0 -158.5 -48t-125.5 -112h-4v207z" />
</font>
</defs>
</svg>
