<?xml version="1.0" standalone="no"?>
<!DOCTYPE svg PUBLIC "-//W3C//DTD SVG 20010904//EN"
 "http://www.w3.org/TR/2001/REC-SVG-20010904/DTD/svg10.dtd">
<svg version="1.0" xmlns="http://www.w3.org/2000/svg"
 width="475.000000pt" height="525.000000pt" viewBox="0 0 475.000000 525.000000"
 preserveAspectRatio="xMidYMid meet">

<g transform="translate(0.000000,525.000000) scale(0.100000,-0.100000)"
fill="#000000" stroke="none">
<path d="M2508 4540 c-63 -143 -64 -145 -40 -213 16 -47 26 -124 42 -312 11
-137 20 -260 20 -272 0 -22 -4 -23 -73 -23 -211 0 -414 -122 -501 -303 -81
-166 -66 -379 38 -540 19 -32 31 -57 25 -57 -21 0 -90 41 -122 73 -32 32 -33
37 -45 163 -27 265 -86 634 -102 634 -4 0 -26 -45 -49 -99 -34 -83 -39 -104
-31 -127 11 -33 50 -255 50 -286 0 -18 -5 -16 -39 15 -84 76 -165 55 -294 -76
-73 -75 -122 -154 -217 -351 -48 -100 -110 -215 -138 -257 -98 -149 -248 -286
-416 -379 -42 -22 -78 -45 -81 -51 -20 -32 157 22 310 94 166 79 223 150 379
470 84 173 105 206 162 266 76 81 138 116 185 106 42 -9 98 -68 149 -155 42
-73 43 -73 56 -229 8 -86 23 -308 34 -494 11 -186 27 -371 34 -410 32 -164 94
-284 198 -382 108 -103 213 -156 514 -263 l111 -40 7 52 c3 28 6 81 6 117 l0
66 -124 61 c-93 46 -139 75 -180 116 -31 30 -56 61 -56 69 0 36 198 182 385
284 250 138 367 187 523 224 123 28 130 27 136 -23 6 -45 50 -602 62 -773 5
-86 8 -97 19 -81 20 26 53 178 60 276 4 54 -1 179 -14 345 -12 143 -21 268
-21 278 0 13 8 17 33 17 31 0 33 2 66 93 18 50 36 98 38 105 4 9 -15 12 -76
12 -54 0 -81 4 -81 11 0 20 -49 662 -54 702 -2 20 -1 37 2 37 4 0 22 -21 41
-45 68 -91 66 -44 -5 171 -66 198 -105 297 -114 287 -4 -4 -24 -49 -45 -100
l-37 -92 17 -48 c17 -51 92 -890 81 -919 -5 -12 -60 -14 -357 -14 l-351 0 15
24 c38 58 59 150 64 283 l6 131 46 25 c62 34 175 115 235 169 42 38 53 56 86
146 21 56 34 102 30 102 -5 0 -28 -16 -52 -36 -89 -75 -304 -204 -339 -204
-12 0 -19 52 -37 293 -13 160 -22 298 -22 305 0 15 13 13 148 -20 46 -11 86
-18 89 -15 15 16 -121 142 -203 189 -44 24 -54 35 -54 56 0 15 -7 104 -15 197
-8 94 -15 187 -15 209 l0 39 39 -44 c21 -24 42 -41 46 -37 12 11 -90 341 -148
478 l-15 35 -24 -55z m37 -1022 c2 -7 15 -157 28 -333 17 -215 21 -322 15
-326 -25 -16 -133 -31 -179 -26 -73 9 -133 42 -204 111 -108 106 -170 223
-182 343 -9 86 -3 96 89 142 93 46 207 78 318 90 110 12 110 12 115 -1z m74
-986 l1 -83 -56 -25 c-79 -35 -238 -78 -384 -103 -197 -35 -177 -23 -215 -124
-19 -49 -36 -91 -38 -94 -5 -5 -11 60 -27 346 -6 101 -9 185 -8 187 2 2 27 -8
55 -22 28 -14 93 -33 144 -41 125 -21 247 -8 402 45 131 43 124 48 126 -86z
m-45 -470 l229 -7 -98 -50 c-201 -102 -358 -221 -411 -310 -32 -55 -55 -120
-62 -179 -4 -27 -12 -51 -19 -53 -18 -6 -140 114 -177 176 -46 75 -83 189
-101 308 -8 54 -15 105 -15 114 0 17 57 17 654 1z"/>
<path d="M2851 1505 c-24 -53 -42 -97 -40 -99 13 -10 202 -106 204 -104 6 6
64 125 78 161 l16 37 -99 50 c-55 28 -103 50 -108 50 -4 0 -27 -43 -51 -95z"/>
</g>
</svg>
